<svg xmlns="http://www.w3.org/2000/svg" xmlns:xlink="http://www.w3.org/1999/xlink" width="500" zoomAndPan="magnify" viewBox="0 0 375 374.999991" height="500" preserveAspectRatio="xMidYMid meet" version="1.2"><defs><clipPath id="2a6a6881dc"><path d="M 8.945312 8.945312 L 365.945312 8.945312 L 365.945312 365.945312 L 8.945312 365.945312 Z M 8.945312 8.945312 "/></clipPath></defs><g id="cc252218de"><rect x="0" width="375" y="0" height="374.999991" style="fill:#ffffff;fill-opacity:1;stroke:none;"/><rect x="0" width="375" y="0" height="374.999991" style="fill:#ffffff;fill-opacity:1;stroke:none;"/><path style=" stroke:none;fill-rule:nonzero;fill:#000000;fill-opacity:1;" d="M 240.925781 207.90625 C 236.882812 207.90625 233.035156 209.121094 229.769531 211.355469 C 226.378906 208.855469 222.335938 207.445312 218.046875 207.445312 C 212.742188 207.445312 207.753906 209.511719 204.003906 213.261719 C 202.261719 215.007812 202.261719 217.832031 204.003906 219.574219 C 205.746094 221.316406 208.574219 221.316406 210.316406 219.574219 C 214.445312 215.445312 221.644531 215.441406 225.777344 219.574219 C 227.84375 221.640625 228.980469 224.382812 228.980469 227.304688 C 228.980469 230.226562 227.84375 232.972656 225.777344 235.035156 C 224.035156 236.78125 224.035156 239.605469 225.777344 241.347656 C 226.648438 242.21875 227.792969 242.65625 228.933594 242.65625 C 230.074219 242.65625 231.21875 242.21875 232.089844 241.347656 C 235.839844 237.59375 237.90625 232.609375 237.90625 227.304688 C 237.90625 224.101562 237.070312 221.054688 235.648438 218.285156 C 239.789062 216.078125 245.257812 216.632812 248.660156 220.035156 C 249.53125 220.90625 250.671875 221.34375 251.816406 221.34375 C 252.957031 221.34375 254.097656 220.90625 254.96875 220.035156 C 256.714844 218.292969 256.714844 215.46875 254.96875 213.726562 C 251.21875 209.972656 246.234375 207.90625 240.925781 207.90625 Z M 240.925781 207.90625 "/><path style=" stroke:none;fill-rule:nonzero;fill:#000000;fill-opacity:1;" d="M 276.574219 195.050781 C 275.480469 193.90625 274.300781 192.84375 273.050781 191.871094 C 278.585938 187.90625 282.164062 181.429688 282.164062 174.304688 C 282.164062 164.550781 275.652344 156.261719 266.75 153.570312 C 268.804688 146.546875 268.445312 138.992188 265.644531 131.777344 C 262.371094 123.351562 255.34375 116.542969 246.851562 113.5625 C 239.894531 111.121094 232.78125 110.890625 226.222656 112.761719 C 226.515625 109.277344 225.964844 105.671875 224.527344 102.175781 C 222.308594 96.789062 217.890625 92.582031 212.402344 90.636719 C 205.398438 88.144531 198.019531 89.09375 192.164062 93.226562 C 190.335938 94.519531 188.769531 96.09375 187.445312 97.835938 C 186.121094 96.09375 184.558594 94.519531 182.730469 93.226562 C 176.875 89.09375 169.496094 88.144531 162.492188 90.636719 C 157.003906 92.582031 152.582031 96.789062 150.363281 102.175781 C 148.925781 105.671875 148.375 109.277344 148.671875 112.761719 C 142.117188 110.890625 135 111.117188 128.039062 113.5625 C 119.546875 116.542969 112.523438 123.351562 109.25 131.777344 C 106.445312 138.992188 106.089844 146.546875 108.144531 153.570312 C 99.242188 156.261719 92.730469 164.550781 92.730469 174.304688 C 92.730469 181.429688 96.308594 187.90625 101.84375 191.871094 C 100.59375 192.84375 99.414062 193.90625 98.320312 195.050781 C 98.316406 195.050781 98.316406 195.050781 98.316406 195.050781 C 92.441406 201.1875 89.203125 209.246094 89.203125 217.738281 C 89.203125 231.988281 98.285156 244.34375 111.417969 248.808594 C 110.179688 254.273438 110.777344 259.945312 113.207031 265.457031 C 115.742188 271.210938 120.578125 275.90625 126.464844 278.332031 C 133.417969 281.203125 140.640625 281.160156 147.164062 278.28125 C 152.148438 283.0625 158.601562 285.605469 165.367188 285.605469 C 168.785156 285.605469 172.28125 284.957031 175.707031 283.621094 C 180.554688 281.734375 184.605469 278.320312 187.445312 274.011719 C 190.285156 278.320312 194.339844 281.734375 199.1875 283.621094 C 202.613281 284.957031 206.109375 285.605469 209.527344 285.605469 C 216.292969 285.605469 222.746094 283.0625 227.730469 278.28125 C 234.257812 281.160156 241.480469 281.203125 248.425781 278.335938 C 254.316406 275.90625 259.152344 271.210938 261.6875 265.457031 C 264.113281 259.945312 264.710938 254.273438 263.476562 248.808594 C 276.605469 244.34375 285.691406 231.988281 285.691406 217.738281 C 285.691406 209.246094 282.453125 201.1875 276.578125 195.050781 C 276.578125 195.050781 276.578125 195.050781 276.574219 195.050781 Z M 172.46875 275.304688 C 163.121094 278.945312 155.578125 274.929688 151.632812 269.960938 C 150.757812 268.859375 149.457031 268.273438 148.136719 268.273438 C 147.332031 268.273438 146.523438 268.488281 145.796875 268.9375 C 142.375 271.046875 136.84375 272.960938 129.867188 270.082031 C 126.085938 268.527344 122.988281 265.523438 121.371094 261.855469 C 118.683594 255.753906 119.804688 250.675781 121.21875 247.488281 C 121.773438 246.234375 121.722656 244.789062 121.074219 243.578125 C 120.429688 242.367188 119.261719 241.519531 117.90625 241.285156 C 106.445312 239.277344 98.125 229.375 98.125 217.738281 C 98.125 211.558594 100.480469 205.691406 104.757812 201.226562 C 107.199219 198.683594 110.214844 196.675781 113.480469 195.417969 C 115.375 194.6875 116.535156 192.777344 116.316406 190.761719 C 116.089844 188.746094 114.535156 187.136719 112.53125 186.839844 C 106.226562 185.90625 101.65625 180.636719 101.65625 174.304688 C 101.65625 167.316406 107.34375 161.605469 114.339844 161.574219 C 115.882812 161.566406 117.316406 160.761719 118.125 159.445312 C 118.929688 158.128906 119 156.488281 118.304688 155.105469 C 116.109375 150.730469 114.195312 143.691406 117.566406 135.011719 C 119.910156 128.980469 124.929688 124.109375 130.996094 121.980469 C 139.320312 119.058594 147.894531 120.394531 154.515625 125.632812 C 156.324219 127.066406 158.917969 126.886719 160.507812 125.222656 C 162.101562 123.5625 162.167969 120.960938 160.660156 119.21875 C 157.363281 115.402344 156.617188 110.429688 158.617188 105.574219 C 159.855469 102.570312 162.417969 100.132812 165.476562 99.046875 C 169.714844 97.535156 174.121094 98.078125 177.582031 100.519531 C 180.964844 102.90625 182.984375 106.800781 182.984375 110.9375 L 182.984375 231.375 C 179.050781 228.285156 174.15625 226.363281 168.777344 226.363281 C 156.023438 226.363281 145.644531 236.738281 145.644531 249.492188 C 145.644531 251.957031 147.644531 253.953125 150.109375 253.953125 C 152.574219 253.953125 154.570312 251.957031 154.570312 249.492188 C 154.570312 241.660156 160.945312 235.289062 168.777344 235.289062 C 176.609375 235.289062 182.984375 241.660156 182.984375 249.492188 L 182.984375 259.058594 C 182.984375 266.328125 178.757812 272.855469 172.46875 275.304688 Z M 256.984375 241.285156 C 255.632812 241.519531 254.464844 242.367188 253.816406 243.578125 C 253.171875 244.789062 253.117188 246.234375 253.675781 247.488281 C 255.085938 250.675781 256.207031 255.753906 253.519531 261.855469 C 251.90625 265.523438 248.808594 268.527344 245.027344 270.082031 C 238.058594 272.960938 232.519531 271.046875 229.097656 268.9375 C 227.171875 267.753906 224.664062 268.191406 223.261719 269.960938 C 219.316406 274.929688 211.777344 278.949219 202.425781 275.304688 C 196.136719 272.855469 191.910156 266.328125 191.910156 259.058594 L 191.910156 169.871094 C 195.84375 172.964844 200.734375 174.886719 206.117188 174.886719 C 218.871094 174.886719 229.246094 164.511719 229.246094 151.753906 C 229.246094 149.289062 227.25 147.292969 224.785156 147.292969 C 222.320312 147.292969 220.324219 149.289062 220.324219 151.753906 C 220.324219 159.589844 213.949219 165.960938 206.117188 165.960938 C 198.28125 165.960938 191.910156 159.589844 191.910156 151.753906 L 191.910156 110.9375 C 191.910156 106.800781 193.929688 102.90625 197.3125 100.519531 C 199.480469 98.988281 202.019531 98.207031 204.65625 98.207031 C 206.230469 98.207031 207.835938 98.484375 209.417969 99.046875 C 212.476562 100.132812 215.039062 102.570312 216.273438 105.574219 C 218.273438 110.429688 217.527344 115.402344 214.230469 119.21875 C 212.726562 120.960938 212.792969 123.5625 214.386719 125.222656 C 215.976562 126.890625 218.574219 127.066406 220.378906 125.632812 C 226.996094 120.390625 235.566406 119.058594 243.898438 121.980469 C 249.964844 124.109375 254.984375 128.980469 257.324219 135.011719 C 260.699219 143.691406 258.785156 150.730469 256.585938 155.105469 C 255.894531 156.488281 255.964844 158.128906 256.769531 159.445312 C 257.578125 160.761719 259.011719 161.566406 260.554688 161.574219 C 267.550781 161.605469 273.238281 167.316406 273.238281 174.304688 C 273.238281 180.636719 268.664062 185.90625 262.359375 186.839844 C 260.355469 187.136719 258.804688 188.746094 258.578125 190.761719 C 258.355469 192.777344 259.519531 194.6875 261.410156 195.417969 C 264.679688 196.675781 267.695312 198.683594 270.132812 201.226562 C 274.410156 205.691406 276.765625 211.558594 276.765625 217.738281 C 276.765625 229.375 268.445312 239.277344 256.984375 241.285156 Z M 256.984375 241.285156 "/><path style=" stroke:none;fill-rule:nonzero;fill:#000000;fill-opacity:1;" d="M 154.226562 187.664062 C 154.226562 190.128906 156.226562 192.125 158.691406 192.125 C 161.15625 192.125 163.152344 190.128906 163.152344 187.664062 C 163.152344 180.675781 159.503906 174.546875 154.03125 171.003906 C 154.054688 170.984375 154.078125 170.96875 154.101562 170.949219 C 161.84375 163.203125 161.84375 150.605469 154.101562 142.859375 C 152.359375 141.117188 149.535156 141.117188 147.792969 142.859375 C 146.046875 144.601562 146.046875 147.429688 147.792969 149.171875 C 152.054688 153.433594 152.054688 160.371094 147.792969 164.636719 C 143.53125 168.898438 136.585938 168.898438 132.324219 164.636719 C 130.582031 162.894531 127.753906 162.894531 126.015625 164.636719 C 124.273438 166.378906 124.273438 169.207031 126.015625 170.949219 C 129.886719 174.820312 134.972656 176.753906 140.058594 176.753906 C 140.824219 176.753906 141.582031 176.625 142.339844 176.535156 C 142.65625 176.605469 142.953125 176.726562 143.292969 176.726562 C 149.320312 176.726562 154.226562 181.636719 154.226562 187.664062 Z M 154.226562 187.664062 "/><g clip-rule="nonzero" clip-path="url(#2a6a6881dc)"><path style=" stroke:none;fill-rule:nonzero;fill:#000000;fill-opacity:1;" d="M 361.484375 191.910156 C 363.949219 191.910156 365.945312 189.910156 365.945312 187.445312 C 365.945312 184.980469 363.949219 182.984375 361.484375 182.984375 L 321.320312 182.984375 L 321.320312 120.507812 L 344.574219 120.507812 C 346.300781 124.445312 350.21875 127.203125 354.789062 127.203125 C 360.953125 127.203125 365.945312 122.207031 365.945312 116.046875 C 365.945312 109.886719 360.953125 104.890625 354.789062 104.890625 C 350.21875 104.890625 346.296875 107.648438 344.574219 111.585938 L 321.320312 111.585938 L 321.320312 75.882812 C 321.320312 63.582031 311.3125 53.570312 299.007812 53.570312 L 263.328125 53.570312 L 263.328125 13.410156 C 263.328125 10.945312 261.332031 8.945312 258.867188 8.945312 C 256.402344 8.945312 254.402344 10.945312 254.402344 13.410156 L 254.402344 53.570312 L 191.929688 53.570312 L 191.929688 13.410156 C 191.929688 10.945312 189.929688 8.945312 187.464844 8.945312 C 185 8.945312 183.003906 10.945312 183.003906 13.410156 L 183.003906 53.570312 L 120.527344 53.570312 L 120.527344 30.316406 C 124.464844 28.59375 127.222656 24.675781 127.222656 20.101562 C 127.222656 13.941406 122.226562 8.945312 116.066406 8.945312 C 109.90625 8.945312 104.910156 13.941406 104.910156 20.101562 C 104.910156 24.675781 107.667969 28.59375 111.605469 30.316406 L 111.605469 53.570312 L 75.882812 53.570312 C 63.582031 53.570312 53.570312 63.582031 53.570312 75.882812 L 53.570312 111.585938 L 13.410156 111.585938 C 10.945312 111.585938 8.945312 113.582031 8.945312 116.046875 C 8.945312 118.511719 10.945312 120.507812 13.410156 120.507812 L 53.570312 120.507812 L 53.570312 182.984375 L 13.410156 182.984375 C 10.945312 182.984375 8.945312 184.980469 8.945312 187.445312 C 8.945312 189.910156 10.945312 191.910156 13.410156 191.910156 L 53.570312 191.910156 L 53.570312 254.382812 L 30.316406 254.382812 C 28.59375 250.445312 24.675781 247.691406 20.101562 247.691406 C 13.941406 247.691406 8.945312 252.683594 8.945312 258.847656 C 8.945312 265.007812 13.941406 270.003906 20.101562 270.003906 C 24.675781 270.003906 28.59375 267.246094 30.316406 263.308594 L 53.570312 263.308594 L 53.570312 299.007812 C 53.570312 311.3125 63.582031 321.320312 75.882812 321.320312 L 111.585938 321.320312 L 111.585938 344.625 C 107.660156 346.351562 104.910156 350.261719 104.910156 354.828125 C 104.910156 360.988281 109.90625 365.984375 116.066406 365.984375 C 122.226562 365.984375 127.222656 360.988281 127.222656 354.828125 C 127.222656 350.246094 124.457031 346.320312 120.507812 344.601562 L 120.507812 321.320312 L 182.984375 321.320312 L 182.984375 361.484375 C 182.984375 363.949219 184.980469 365.945312 187.445312 365.945312 C 189.910156 365.945312 191.910156 363.949219 191.910156 361.484375 L 191.910156 321.320312 L 254.382812 321.320312 L 254.382812 361.484375 C 254.382812 363.949219 256.382812 365.945312 258.847656 365.945312 C 261.3125 365.945312 263.308594 363.949219 263.308594 361.484375 L 263.308594 321.320312 L 299.007812 321.320312 C 311.3125 321.320312 321.320312 311.3125 321.320312 299.007812 L 321.320312 263.308594 L 361.484375 263.308594 C 363.949219 263.308594 365.945312 261.3125 365.945312 258.847656 C 365.945312 256.382812 363.949219 254.382812 361.484375 254.382812 L 321.320312 254.382812 L 321.320312 191.910156 Z M 312.398438 299.007812 C 312.398438 306.390625 306.390625 312.398438 299.007812 312.398438 L 75.882812 312.398438 C 68.5 312.398438 62.496094 306.390625 62.496094 299.007812 L 62.496094 75.882812 C 62.496094 68.5 68.5 62.496094 75.882812 62.496094 L 299.007812 62.496094 C 306.390625 62.496094 312.398438 68.5 312.398438 75.882812 Z M 312.398438 299.007812 "/></g></g></svg>