<svg xmlns="http://www.w3.org/2000/svg" xmlns:xlink="http://www.w3.org/1999/xlink" width="500" zoomAndPan="magnify" viewBox="0 0 375 374.999991" height="500" preserveAspectRatio="xMidYMid meet" version="1.2"><defs><clipPath id="e8467ad60d"><path d="M 75.445312 75.445312 L 299.695312 75.445312 L 299.695312 299.695312 L 75.445312 299.695312 Z M 75.445312 75.445312 "/></clipPath></defs><g id="47c522ea14"><rect x="0" width="375" y="0" height="374.999991" style="fill:#ffffff;fill-opacity:1;stroke:none;"/><rect x="0" width="375" y="0" height="374.999991" style="fill:#ffffff;fill-opacity:1;stroke:none;"/><path style=" stroke:none;fill-rule:nonzero;fill:#545454;fill-opacity:1;" d="M 221.066406 200.335938 C 218.527344 200.335938 216.113281 201.101562 214.0625 202.5 C 211.933594 200.933594 209.394531 200.046875 206.703125 200.046875 C 203.371094 200.046875 200.242188 201.34375 197.886719 203.699219 C 196.792969 204.792969 196.792969 206.566406 197.886719 207.660156 C 198.984375 208.753906 200.757812 208.753906 201.847656 207.660156 C 204.441406 205.070312 208.960938 205.066406 211.554688 207.660156 C 212.851562 208.957031 213.566406 210.679688 213.566406 212.515625 C 213.566406 214.347656 212.851562 216.070312 211.554688 217.367188 C 210.460938 218.460938 210.460938 220.234375 211.554688 221.328125 C 212.105469 221.875 212.820312 222.148438 213.535156 222.148438 C 214.253906 222.148438 214.96875 221.875 215.519531 221.328125 C 217.871094 218.972656 219.167969 215.84375 219.167969 212.515625 C 219.167969 210.503906 218.644531 208.589844 217.75 206.851562 C 220.351562 205.464844 223.78125 205.816406 225.917969 207.949219 C 226.464844 208.496094 227.183594 208.773438 227.898438 208.773438 C 228.617188 208.773438 229.332031 208.496094 229.878906 207.949219 C 230.976562 206.859375 230.976562 205.085938 229.878906 203.988281 C 227.527344 201.632812 224.394531 200.335938 221.066406 200.335938 Z M 221.066406 200.335938 "/><path style=" stroke:none;fill-rule:nonzero;fill:#545454;fill-opacity:1;" d="M 243.441406 192.269531 C 242.753906 191.550781 242.015625 190.882812 241.230469 190.269531 C 244.703125 187.78125 246.949219 183.714844 246.949219 179.246094 C 246.949219 173.125 242.863281 167.921875 237.273438 166.230469 C 238.566406 161.820312 238.339844 157.078125 236.582031 152.550781 C 234.527344 147.257812 230.117188 142.984375 224.785156 141.117188 C 220.417969 139.582031 215.953125 139.4375 211.835938 140.613281 C 212.019531 138.425781 211.675781 136.160156 210.769531 133.96875 C 209.378906 130.585938 206.605469 127.945312 203.160156 126.722656 C 198.761719 125.160156 194.132812 125.757812 190.457031 128.351562 C 189.308594 129.160156 188.324219 130.148438 187.496094 131.242188 C 186.664062 130.148438 185.679688 129.160156 184.53125 128.351562 C 180.859375 125.757812 176.226562 125.160156 171.828125 126.722656 C 168.382812 127.945312 165.609375 130.585938 164.21875 133.96875 C 163.316406 136.160156 162.96875 138.425781 163.15625 140.613281 C 159.039062 139.4375 154.574219 139.582031 150.203125 141.117188 C 144.871094 142.984375 140.464844 147.257812 138.40625 152.550781 C 136.648438 157.078125 136.425781 161.820312 137.714844 166.230469 C 132.125 167.921875 128.039062 173.125 128.039062 179.246094 C 128.039062 183.714844 130.285156 187.78125 133.757812 190.269531 C 132.972656 190.882812 132.234375 191.550781 131.546875 192.269531 C 127.855469 196.121094 125.824219 201.175781 125.824219 206.507812 C 125.824219 215.453125 131.527344 223.210938 139.769531 226.011719 C 138.992188 229.445312 139.367188 233.003906 140.890625 236.460938 C 142.484375 240.074219 145.519531 243.023438 149.214844 244.546875 C 153.582031 246.347656 158.113281 246.320312 162.207031 244.511719 C 165.335938 247.515625 169.386719 249.113281 173.632812 249.109375 C 175.78125 249.109375 177.976562 248.703125 180.125 247.867188 C 183.167969 246.679688 185.710938 244.535156 187.496094 241.832031 C 189.277344 244.535156 191.820312 246.679688 194.863281 247.867188 C 197.015625 248.703125 199.210938 249.109375 201.355469 249.109375 C 205.601562 249.109375 209.652344 247.515625 212.78125 244.511719 C 216.878906 246.320312 221.414062 246.347656 225.773438 244.546875 C 229.46875 243.023438 232.503906 240.074219 234.097656 236.460938 C 235.621094 233.003906 235.996094 229.445312 235.21875 226.011719 C 243.460938 223.210938 249.164062 215.453125 249.164062 206.507812 C 249.164062 201.175781 247.132812 196.121094 243.445312 192.269531 C 243.445312 192.269531 243.445312 192.269531 243.441406 192.269531 Z M 178.09375 242.644531 C 172.222656 244.929688 167.488281 242.410156 165.011719 239.289062 C 164.464844 238.597656 163.648438 238.230469 162.816406 238.230469 C 162.3125 238.230469 161.804688 238.367188 161.347656 238.648438 C 159.203125 239.972656 155.730469 241.171875 151.347656 239.367188 C 148.976562 238.390625 147.03125 236.507812 146.019531 234.203125 C 144.332031 230.371094 145.035156 227.183594 145.921875 225.183594 C 146.269531 224.394531 146.238281 223.492188 145.832031 222.730469 C 145.425781 221.96875 144.691406 221.4375 143.84375 221.289062 C 136.648438 220.03125 131.425781 213.816406 131.425781 206.507812 C 131.425781 202.628906 132.90625 198.949219 135.589844 196.144531 C 137.121094 194.546875 139.011719 193.289062 141.066406 192.496094 C 142.253906 192.039062 142.984375 190.839844 142.84375 189.574219 C 142.703125 188.3125 141.726562 187.296875 140.46875 187.113281 C 136.511719 186.527344 133.640625 183.21875 133.640625 179.246094 C 133.640625 174.855469 137.210938 171.273438 141.601562 171.253906 C 142.574219 171.25 143.472656 170.742188 143.976562 169.917969 C 144.484375 169.089844 144.527344 168.0625 144.09375 167.195312 C 142.714844 164.445312 141.511719 160.027344 143.628906 154.578125 C 145.101562 150.792969 148.25 147.738281 152.058594 146.402344 C 157.285156 144.566406 162.667969 145.40625 166.820312 148.691406 C 167.957031 149.59375 169.585938 149.480469 170.585938 148.4375 C 171.585938 147.390625 171.625 145.757812 170.679688 144.667969 C 168.609375 142.269531 168.144531 139.148438 169.398438 136.101562 C 170.175781 134.214844 171.78125 132.683594 173.703125 132.003906 C 176.363281 131.054688 179.128906 131.394531 181.300781 132.929688 C 183.425781 134.425781 184.691406 136.871094 184.691406 139.46875 L 184.691406 215.070312 C 182.222656 213.128906 179.152344 211.921875 175.773438 211.921875 C 167.769531 211.921875 161.253906 218.4375 161.253906 226.441406 C 161.253906 227.988281 162.507812 229.242188 164.054688 229.242188 C 165.601562 229.242188 166.855469 227.988281 166.855469 226.441406 C 166.855469 221.523438 170.859375 217.527344 175.773438 217.527344 C 180.691406 217.527344 184.691406 221.523438 184.691406 226.441406 L 184.691406 232.449219 C 184.691406 237.007812 182.039062 241.105469 178.09375 242.644531 Z M 231.144531 221.289062 C 230.296875 221.4375 229.5625 221.96875 229.15625 222.730469 C 228.75 223.492188 228.71875 224.394531 229.066406 225.183594 C 229.953125 227.183594 230.65625 230.371094 228.972656 234.203125 C 227.957031 236.507812 226.011719 238.390625 223.636719 239.367188 C 219.265625 241.171875 215.785156 239.972656 213.640625 238.648438 C 212.433594 237.90625 210.859375 238.179688 209.976562 239.289062 C 207.5 242.410156 202.769531 244.933594 196.898438 242.644531 C 192.949219 241.105469 190.296875 237.007812 190.296875 232.449219 L 190.296875 176.464844 C 192.765625 178.402344 195.835938 179.609375 199.214844 179.609375 C 207.21875 179.609375 213.734375 173.097656 213.734375 165.089844 C 213.734375 163.542969 212.480469 162.289062 210.933594 162.289062 C 209.386719 162.289062 208.132812 163.542969 208.132812 165.089844 C 208.132812 170.007812 204.128906 174.007812 199.214844 174.007812 C 194.296875 174.007812 190.296875 170.007812 190.296875 165.089844 L 190.296875 139.46875 C 190.296875 136.871094 191.5625 134.425781 193.6875 132.929688 C 195.046875 131.96875 196.640625 131.476562 198.296875 131.476562 C 199.285156 131.476562 200.292969 131.652344 201.285156 132.003906 C 203.207031 132.683594 204.816406 134.214844 205.589844 136.101562 C 206.847656 139.148438 206.378906 142.269531 204.308594 144.667969 C 203.363281 145.757812 203.40625 147.390625 204.40625 148.4375 C 205.402344 149.480469 207.035156 149.589844 208.167969 148.691406 C 212.320312 145.402344 217.699219 144.566406 222.929688 146.402344 C 226.738281 147.738281 229.890625 150.792969 231.359375 154.578125 C 233.476562 160.027344 232.277344 164.445312 230.894531 167.195312 C 230.460938 168.0625 230.503906 169.089844 231.011719 169.917969 C 231.519531 170.742188 232.417969 171.25 233.386719 171.253906 C 237.777344 171.273438 241.347656 174.855469 241.347656 179.246094 C 241.347656 183.21875 238.476562 186.527344 234.519531 187.113281 C 233.261719 187.296875 232.285156 188.3125 232.144531 189.574219 C 232.007812 190.839844 232.738281 192.039062 233.925781 192.496094 C 235.976562 193.289062 237.867188 194.546875 239.398438 196.144531 C 242.085938 198.949219 243.5625 202.628906 243.5625 206.507812 C 243.5625 213.816406 238.339844 220.03125 231.144531 221.289062 Z M 231.144531 221.289062 "/><path style=" stroke:none;fill-rule:nonzero;fill:#545454;fill-opacity:1;" d="M 166.640625 187.632812 C 166.640625 189.179688 167.898438 190.433594 169.445312 190.433594 C 170.992188 190.433594 172.246094 189.179688 172.246094 187.632812 C 172.246094 183.242188 169.953125 179.398438 166.519531 177.175781 C 166.53125 177.160156 166.550781 177.152344 166.5625 177.136719 C 171.421875 172.277344 171.421875 164.367188 166.5625 159.507812 C 165.46875 158.414062 163.695312 158.414062 162.601562 159.507812 C 161.507812 160.601562 161.507812 162.375 162.601562 163.46875 C 165.277344 166.144531 165.277344 170.5 162.601562 173.175781 C 159.925781 175.851562 155.570312 175.851562 152.894531 173.175781 C 151.800781 172.082031 150.023438 172.082031 148.933594 173.175781 C 147.839844 174.269531 147.839844 176.042969 148.933594 177.136719 C 151.363281 179.566406 154.554688 180.78125 157.746094 180.78125 C 158.226562 180.78125 158.703125 180.699219 159.179688 180.644531 C 159.378906 180.691406 159.566406 180.765625 159.777344 180.765625 C 163.5625 180.765625 166.640625 183.847656 166.640625 187.632812 Z M 166.640625 187.632812 "/><g clip-rule="nonzero" clip-path="url(#e8467ad60d)"><path style=" stroke:none;fill-rule:nonzero;fill:#545454;fill-opacity:1;" d="M 296.742188 190.296875 C 298.289062 190.296875 299.542969 189.042969 299.542969 187.496094 C 299.542969 185.949219 298.289062 184.691406 296.742188 184.691406 L 271.53125 184.691406 L 271.53125 145.476562 L 286.128906 145.476562 C 287.210938 147.945312 289.671875 149.679688 292.539062 149.679688 C 296.40625 149.679688 299.542969 146.542969 299.542969 142.675781 C 299.542969 138.808594 296.40625 135.671875 292.539062 135.671875 C 289.667969 135.671875 287.210938 137.402344 286.128906 139.875 L 271.53125 139.875 L 271.53125 117.464844 C 271.53125 109.742188 265.246094 103.457031 257.523438 103.457031 L 235.128906 103.457031 L 235.128906 78.246094 C 235.128906 76.699219 233.875 75.445312 232.328125 75.445312 C 230.78125 75.445312 229.523438 76.699219 229.523438 78.246094 L 229.523438 103.457031 L 190.308594 103.457031 L 190.308594 78.246094 C 190.308594 76.699219 189.054688 75.445312 187.507812 75.445312 C 185.960938 75.445312 184.707031 76.699219 184.707031 78.246094 L 184.707031 103.457031 L 145.488281 103.457031 L 145.488281 88.859375 C 147.960938 87.777344 149.691406 85.320312 149.691406 82.449219 C 149.691406 78.582031 146.554688 75.445312 142.6875 75.445312 C 138.820312 75.445312 135.683594 78.582031 135.683594 82.449219 C 135.683594 85.320312 137.414062 87.777344 139.886719 88.859375 L 139.886719 103.457031 L 117.464844 103.457031 C 109.742188 103.457031 103.457031 109.742188 103.457031 117.464844 L 103.457031 139.875 L 78.246094 139.875 C 76.699219 139.875 75.445312 141.128906 75.445312 142.675781 C 75.445312 144.222656 76.699219 145.476562 78.246094 145.476562 L 103.457031 145.476562 L 103.457031 184.691406 L 78.246094 184.691406 C 76.699219 184.691406 75.445312 185.949219 75.445312 187.496094 C 75.445312 189.042969 76.699219 190.296875 78.246094 190.296875 L 103.457031 190.296875 L 103.457031 229.511719 L 88.859375 229.511719 C 87.777344 227.042969 85.320312 225.3125 82.449219 225.3125 C 78.582031 225.3125 75.445312 228.445312 75.445312 232.3125 C 75.445312 236.179688 78.582031 239.316406 82.449219 239.316406 C 85.320312 239.316406 87.777344 237.585938 88.859375 235.113281 L 103.457031 235.113281 L 103.457031 257.523438 C 103.457031 265.246094 109.742188 271.53125 117.464844 271.53125 L 139.875 271.53125 L 139.875 286.160156 C 137.410156 287.242188 135.683594 289.699219 135.683594 292.5625 C 135.683594 296.429688 138.820312 299.566406 142.6875 299.566406 C 146.554688 299.566406 149.691406 296.429688 149.691406 292.5625 C 149.691406 289.6875 147.953125 287.222656 145.476562 286.144531 L 145.476562 271.53125 L 184.691406 271.53125 L 184.691406 296.742188 C 184.691406 298.289062 185.949219 299.542969 187.496094 299.542969 C 189.042969 299.542969 190.296875 298.289062 190.296875 296.742188 L 190.296875 271.53125 L 229.511719 271.53125 L 229.511719 296.742188 C 229.511719 298.289062 230.765625 299.542969 232.3125 299.542969 C 233.859375 299.542969 235.113281 298.289062 235.113281 296.742188 L 235.113281 271.53125 L 257.523438 271.53125 C 265.246094 271.53125 271.53125 265.246094 271.53125 257.523438 L 271.53125 235.113281 L 296.742188 235.113281 C 298.289062 235.113281 299.542969 233.859375 299.542969 232.3125 C 299.542969 230.765625 298.289062 229.511719 296.742188 229.511719 L 271.53125 229.511719 L 271.53125 190.296875 Z M 265.929688 257.523438 C 265.929688 262.160156 262.160156 265.929688 257.523438 265.929688 L 117.464844 265.929688 C 112.828125 265.929688 109.058594 262.160156 109.058594 257.523438 L 109.058594 117.464844 C 109.058594 112.828125 112.828125 109.058594 117.464844 109.058594 L 257.523438 109.058594 C 262.160156 109.058594 265.929688 112.828125 265.929688 117.464844 Z M 265.929688 257.523438 "/></g></g></svg>