<svg xmlns="http://www.w3.org/2000/svg" xmlns:xlink="http://www.w3.org/1999/xlink" width="500" zoomAndPan="magnify" viewBox="0 0 375 374.999991" height="500" preserveAspectRatio="xMidYMid meet" version="1.2"><defs><clipPath id="665d619dbe"><path d="M 126 247 L 248 247 L 248 368.765625 L 126 368.765625 Z M 126 247 "/></clipPath><clipPath id="224ccfb86a"><path d="M 136 6.515625 L 239 6.515625 L 239 79 L 136 79 Z M 136 6.515625 "/></clipPath></defs><g id="d5efcaa9c5"><rect x="0" width="375" y="0" height="374.999991" style="fill:#ffffff;fill-opacity:1;stroke:none;"/><rect x="0" width="375" y="0" height="374.999991" style="fill:#ffffff;fill-opacity:1;stroke:none;"/><g clip-rule="nonzero" clip-path="url(#665d619dbe)"><path style=" stroke:none;fill-rule:nonzero;fill:#000000;fill-opacity:1;" d="M 159.332031 258.492188 C 156.722656 256.433594 152.96875 256.652344 150.617188 259.011719 L 138.292969 271.34375 C 135.941406 273.695312 135.714844 277.441406 137.769531 280.0625 L 145.140625 289.449219 C 145.289062 289.636719 145.234375 289.960938 145.128906 290.195312 L 144.847656 290.863281 C 144.757812 291.085938 144.566406 291.355469 144.332031 291.382812 L 132.46875 292.832031 C 129.175781 293.238281 126.691406 296.046875 126.691406 299.363281 L 126.691406 316.765625 C 126.691406 320.085938 129.175781 322.894531 132.476562 323.300781 L 144.363281 324.746094 C 144.597656 324.773438 144.785156 325.039062 144.886719 325.296875 L 145.144531 325.925781 C 145.246094 326.160156 145.296875 326.480469 145.152344 326.667969 L 137.765625 336.074219 C 135.71875 338.695312 135.945312 342.4375 138.292969 344.785156 L 150.621094 357.125 C 152.980469 359.472656 156.726562 359.691406 159.335938 357.632812 L 168.695312 350.246094 C 168.9375 350.054688 169.300781 350.183594 169.390625 350.222656 L 170.128906 350.527344 C 170.359375 350.621094 170.609375 350.800781 170.640625 351.039062 L 172.046875 362.933594 C 172.445312 366.238281 175.25 368.730469 178.578125 368.730469 L 196.003906 368.730469 C 199.332031 368.730469 202.140625 366.234375 202.53125 362.925781 L 203.941406 351.039062 C 203.972656 350.796875 204.226562 350.613281 204.453125 350.519531 L 205.171875 350.222656 C 205.402344 350.125 205.722656 350.074219 205.90625 350.222656 L 215.289062 357.628906 C 217.898438 359.691406 221.652344 359.476562 224.011719 357.117188 L 236.328125 344.792969 C 238.6875 342.429688 238.90625 338.675781 236.84375 336.058594 L 229.445312 326.679688 C 229.292969 326.488281 229.34375 326.175781 229.445312 325.945312 L 229.726562 325.269531 C 229.820312 325.046875 230.011719 324.773438 230.246094 324.746094 L 242.113281 323.300781 C 245.40625 322.894531 247.886719 320.085938 247.886719 316.765625 L 247.886719 299.363281 C 247.886719 296.039062 245.398438 293.230469 242.105469 292.832031 L 229.839844 291.078125 L 229.460938 289.433594 L 236.839844 280.074219 C 238.90625 277.453125 238.6875 273.703125 236.328125 271.339844 L 224.007812 259.011719 C 221.652344 256.652344 217.90625 256.429688 215.296875 258.488281 L 205.898438 265.882812 C 205.714844 266.039062 205.382812 265.972656 205.148438 265.875 L 204.445312 265.585938 C 204.21875 265.5 203.96875 265.316406 203.9375 265.074219 L 202.53125 253.210938 C 202.140625 249.898438 199.332031 247.402344 196.003906 247.402344 L 178.578125 247.402344 C 175.25 247.402344 172.445312 249.894531 172.046875 253.207031 L 170.367188 265.484375 L 168.710938 265.863281 Z M 178.960938 266.046875 L 180.175781 255.785156 L 194.398438 255.785156 L 195.617188 266.0625 C 196.449219 273.078125 205.566406 276.789062 211.074219 272.476562 L 219.214844 266.070312 L 229.269531 276.136719 L 222.882812 284.234375 C 218.476562 289.8125 222.316406 298.855469 229.257812 299.710938 L 239.507812 300.960938 L 239.507812 315.167969 L 229.226562 316.421875 C 222.347656 317.273438 218.464844 326.296875 222.867188 331.878906 L 229.269531 339.996094 L 219.222656 350.054688 L 211.09375 343.632812 C 208.523438 341.613281 204.988281 341.1875 201.890625 342.503906 L 201.304688 342.75 C 198.183594 344.019531 196.007812 346.8125 195.621094 350.046875 L 194.398438 360.34375 L 180.175781 360.34375 L 178.957031 350.050781 C 178.128906 343.046875 169.027344 339.3125 163.511719 343.660156 L 155.40625 350.054688 L 145.351562 339.988281 L 151.742188 331.847656 C 156.050781 326.347656 152.359375 317.269531 145.371094 316.421875 L 135.074219 315.167969 L 135.074219 300.960938 L 145.34375 299.710938 C 152.253906 298.867188 156.089844 289.8125 151.726562 284.265625 L 145.351562 276.140625 L 155.410156 266.070312 L 163.527344 272.453125 C 169.058594 276.8125 178.132812 273.074219 178.960938 266.046875 Z M 178.960938 266.046875 "/></g><path style=" stroke:none;fill-rule:nonzero;fill:#000000;fill-opacity:1;" d="M 187.289062 334.390625 C 201.792969 334.390625 213.59375 322.582031 213.59375 308.066406 C 213.59375 293.550781 201.792969 281.742188 187.289062 281.742188 C 172.785156 281.742188 160.984375 293.550781 160.984375 308.066406 C 160.984375 322.582031 172.785156 334.390625 187.289062 334.390625 Z M 187.289062 290.128906 C 197.171875 290.128906 205.214844 298.175781 205.214844 308.066406 C 205.214844 317.957031 197.171875 326.003906 187.289062 326.003906 C 177.40625 326.003906 169.363281 317.957031 169.363281 308.066406 C 169.363281 298.175781 177.40625 290.128906 187.289062 290.128906 Z M 187.289062 290.128906 "/><g clip-rule="nonzero" clip-path="url(#224ccfb86a)"><path style=" stroke:none;fill-rule:nonzero;fill:#000000;fill-opacity:1;" d="M 136.636719 55.625 C 136.636719 70.527344 162.515625 78.570312 186.867188 78.570312 C 211.703125 78.570312 237.394531 69.777344 237.394531 55.144531 L 237.785156 31.898438 C 238.058594 30.90625 238.246094 29.886719 238.246094 28.816406 C 238.246094 14.355469 211.992188 6.546875 187.289062 6.546875 C 162.585938 6.546875 136.335938 14.355469 136.335938 28.816406 C 136.335938 28.972656 136.382812 29.113281 136.386719 29.269531 C 136.300781 30.847656 136.515625 43.363281 136.636719 55.625 Z M 186.867188 70.183594 C 161.316406 70.183594 145.015625 61.558594 145.015625 55.574219 L 144.851562 41.503906 C 164.339844 54.066406 209.054688 54.324219 229.238281 41.824219 L 229.015625 55.070312 C 229.015625 61.234375 212.597656 70.183594 186.867188 70.183594 Z M 187.289062 14.933594 C 213.277344 14.933594 229.863281 23.15625 229.863281 28.816406 C 229.863281 34.480469 213.277344 42.707031 187.289062 42.707031 C 161.300781 42.707031 144.714844 34.480469 144.714844 28.816406 C 144.714844 23.15625 161.300781 14.933594 187.289062 14.933594 Z M 187.289062 14.933594 "/></g><path style=" stroke:none;fill-rule:nonzero;fill:#000000;fill-opacity:1;" d="M 234.257812 77.210938 C 231.9375 77.113281 229.984375 78.882812 229.871094 81.195312 L 229.425781 90.46875 C 229.425781 96.628906 212.925781 105.582031 187.070312 105.582031 C 161.398438 105.582031 145.019531 96.957031 145.015625 90.890625 L 144.710938 81.269531 C 144.640625 78.949219 142.703125 77.027344 140.394531 77.210938 C 138.082031 77.28125 136.265625 79.214844 136.339844 81.53125 L 136.636719 91.019531 C 136.636719 105.925781 162.621094 113.964844 187.070312 113.964844 C 212.007812 113.964844 237.804688 105.175781 237.800781 90.671875 L 238.238281 81.601562 C 238.351562 79.289062 236.570312 77.324219 234.257812 77.210938 Z M 234.257812 77.210938 "/><path style=" stroke:none;fill-rule:nonzero;fill:#000000;fill-opacity:1;" d="M 348.449219 166.71875 L 348.738281 188.917969 C 348.765625 191.214844 350.636719 193.058594 352.925781 193.058594 C 352.945312 193.058594 352.960938 193.058594 352.980469 193.058594 C 355.292969 193.027344 357.148438 191.125 357.117188 188.808594 L 356.832031 166.632812 C 356.78125 159.621094 351.039062 153.917969 344.03125 153.917969 L 239.113281 153.929688 C 230.214844 153.261719 229.242188 148.640625 230.648438 139.925781 C 230.847656 138.695312 230.964844 137.738281 230.960938 137.136719 C 235.238281 133.796875 237.800781 129.800781 237.800781 125.234375 L 238.238281 116.167969 C 238.351562 113.855469 236.570312 111.890625 234.257812 111.777344 C 231.9375 111.648438 229.984375 113.449219 229.871094 115.761719 L 229.425781 125.03125 C 229.425781 131.195312 212.925781 140.144531 187.070312 140.144531 C 161.398438 140.144531 145.019531 131.523438 145.015625 125.457031 L 144.710938 115.832031 C 144.640625 113.519531 142.703125 111.648438 140.394531 111.773438 C 138.082031 111.84375 136.265625 113.78125 136.339844 116.09375 L 136.636719 125.585938 C 136.636719 131.351562 140.550781 136.074219 146.730469 139.71875 C 148.101562 148.253906 147.382812 153.226562 138.609375 153.917969 L 33.378906 153.917969 C 26.375 153.917969 20.628906 159.621094 20.578125 166.609375 L 20.292969 188.808594 C 20.265625 191.128906 22.117188 193.027344 24.429688 193.058594 C 24.449219 193.058594 24.46875 193.058594 24.484375 193.058594 C 26.773438 193.058594 28.644531 191.214844 28.671875 188.917969 L 28.957031 166.695312 C 28.976562 164.273438 30.960938 162.300781 33.378906 162.300781 L 138.925781 162.292969 C 150.03125 161.449219 156.203125 155.054688 155.625 143.726562 C 175.21875 150.507812 203.191406 150.15625 221.882812 142.28125 C 220.761719 154.140625 226.394531 161.386719 238.796875 162.300781 L 344.03125 162.300781 C 346.453125 162.300781 348.433594 164.273438 348.449219 166.71875 Z M 348.449219 166.71875 "/><path style=" stroke:none;fill-rule:nonzero;fill:#000000;fill-opacity:1;" d="M 174.273438 233.964844 C 174.292969 233.964844 174.308594 233.964844 174.328125 233.964844 C 176.617188 233.964844 178.488281 232.121094 178.515625 229.824219 L 179.269531 168.210938 C 179.296875 165.894531 177.445312 163.992188 175.132812 163.964844 C 175.113281 163.964844 175.097656 163.964844 175.078125 163.964844 C 172.789062 163.964844 170.917969 165.808594 170.890625 168.105469 L 170.136719 229.71875 C 170.109375 232.035156 171.960938 233.9375 174.273438 233.964844 Z M 174.273438 233.964844 "/><path style=" stroke:none;fill-rule:nonzero;fill:#000000;fill-opacity:1;" d="M 199.445312 233.964844 C 199.464844 233.964844 199.480469 233.964844 199.496094 233.964844 C 201.789062 233.964844 203.660156 232.121094 203.6875 229.824219 L 204.441406 168.210938 C 204.46875 165.894531 202.617188 163.996094 200.304688 163.964844 C 200.285156 163.964844 200.269531 163.964844 200.253906 163.964844 C 197.960938 163.964844 196.089844 165.808594 196.0625 168.105469 L 195.308594 229.71875 C 195.28125 232.035156 197.132812 233.933594 199.445312 233.964844 Z M 199.445312 233.964844 "/><path style=" stroke:none;fill-rule:nonzero;fill:#000000;fill-opacity:1;" d="M 242.59375 247.519531 C 240.28125 247.519531 238.40625 249.398438 238.40625 251.710938 C 238.40625 254.027344 240.28125 255.902344 242.59375 255.902344 C 248.863281 255.902344 252.746094 249.871094 252.746094 244.285156 L 252.746094 195.015625 C 252.746094 189.082031 247.917969 184.25 241.988281 184.25 L 222.953125 184.25 C 220.640625 184.25 218.761719 186.128906 218.761719 188.445312 C 218.761719 190.757812 220.640625 192.636719 222.953125 192.636719 L 241.988281 192.636719 C 243.296875 192.636719 244.367188 193.703125 244.367188 195.015625 L 244.367188 244.285156 C 244.367188 245.855469 243.453125 247.519531 242.59375 247.519531 Z M 242.59375 247.519531 "/><path style=" stroke:none;fill-rule:nonzero;fill:#000000;fill-opacity:1;" d="M 150.632812 184.25 L 131.597656 184.25 C 125.667969 184.25 120.84375 189.082031 120.84375 195.015625 L 120.84375 244.285156 C 120.84375 249.871094 124.722656 255.902344 130.988281 255.902344 C 133.300781 255.902344 135.179688 254.027344 135.179688 251.710938 C 135.179688 249.398438 133.300781 247.519531 130.988281 247.519531 C 130.128906 247.519531 129.222656 245.855469 129.222656 244.285156 L 129.222656 195.015625 C 129.222656 193.703125 130.289062 192.636719 131.597656 192.636719 L 150.632812 192.636719 C 152.945312 192.636719 154.820312 190.757812 154.820312 188.445312 C 154.820312 186.128906 152.945312 184.25 150.632812 184.25 Z M 150.632812 184.25 "/><path style=" stroke:none;fill-rule:nonzero;fill:#000000;fill-opacity:1;" d="M 58.292969 135.933594 C 78.953125 135.933594 95.757812 119.113281 95.757812 98.441406 C 95.757812 77.765625 78.953125 60.949219 58.292969 60.949219 C 37.632812 60.949219 20.828125 77.765625 20.828125 98.441406 C 20.828125 119.113281 37.632812 135.933594 58.292969 135.933594 Z M 29.628906 102.632812 L 41.742188 102.632812 C 43.28125 108.703125 48.035156 113.460938 54.105469 115.003906 L 54.105469 127.125 C 41.441406 125.273438 31.480469 115.304688 29.628906 102.632812 Z M 58.292969 89.6875 C 63.117188 89.6875 67.042969 93.613281 67.042969 98.441406 C 67.042969 103.269531 63.117188 107.195312 58.292969 107.195312 C 53.46875 107.195312 49.542969 103.269531 49.542969 98.441406 C 49.542969 93.613281 53.46875 89.6875 58.292969 89.6875 Z M 62.484375 127.125 L 62.484375 115.003906 C 68.546875 113.460938 73.300781 108.703125 74.839844 102.632812 L 86.957031 102.632812 C 85.105469 115.304688 75.148438 125.273438 62.484375 127.125 Z M 86.957031 94.246094 L 74.839844 94.246094 C 73.300781 88.179688 68.546875 83.421875 62.484375 81.878906 L 62.484375 69.757812 C 75.148438 71.609375 85.105469 81.574219 86.957031 94.246094 Z M 54.105469 69.757812 L 54.105469 81.878906 C 48.035156 83.421875 43.285156 88.179688 41.742188 94.246094 L 29.628906 94.246094 C 31.480469 81.574219 41.441406 71.609375 54.105469 69.757812 Z M 54.105469 69.757812 "/><path style=" stroke:none;fill-rule:nonzero;fill:#000000;fill-opacity:1;" d="M 120.703125 106.6875 C 123.015625 106.6875 124.894531 104.8125 124.894531 102.496094 C 124.894531 100.183594 123.015625 98.304688 120.703125 98.304688 L 106.695312 98.304688 C 104.378906 98.304688 102.503906 100.183594 102.503906 102.496094 C 102.503906 104.8125 104.378906 106.6875 106.695312 106.6875 Z M 120.703125 106.6875 "/><path style=" stroke:none;fill-rule:nonzero;fill:#000000;fill-opacity:1;" d="M 285.535156 89.183594 C 283.253906 89.292969 281.476562 91.210938 281.546875 93.492188 L 281.890625 105.375 C 281.953125 107.601562 283.746094 109.390625 285.96875 109.449219 L 288.699219 109.515625 L 289.820312 113.917969 L 288.230469 115.941406 C 286.933594 117.589844 287.054688 119.9375 288.511719 121.449219 L 296.707031 129.933594 C 298.273438 131.554688 300.839844 131.644531 302.515625 130.136719 L 305.128906 127.792969 L 308.21875 129.195312 L 308.78125 132.425781 C 309.132812 134.433594 310.878906 135.894531 312.910156 135.894531 C 313.472656 135.894531 325.054688 135.671875 324.492188 135.667969 C 326.417969 135.632812 328.074219 134.285156 328.496094 132.40625 L 329.148438 129.527344 L 333.058594 127.59375 L 335.757812 129.863281 C 337.394531 131.238281 339.796875 131.167969 341.335938 129.695312 L 348.453125 122.945312 C 349.878906 121.589844 350.175781 119.429688 349.164062 117.742188 L 346.722656 113.671875 L 348.617188 109.40625 L 351.144531 109.28125 C 353.382812 109.171875 355.140625 107.316406 355.128906 105.070312 L 355.058594 93.339844 C 355.046875 91.148438 353.351562 89.335938 351.164062 89.183594 L 348.664062 89.007812 L 347.648438 86.417969 C 349.367188 84.765625 351.664062 84.015625 351.847656 81.289062 C 351.925781 80.125 351.515625 78.984375 350.71875 78.132812 L 341.066406 67.867188 C 340.304688 67.050781 339.246094 66.578125 338.136719 66.546875 C 335.730469 66.328125 334.648438 68.402344 332.214844 70.460938 L 328.648438 68.894531 L 328.496094 65.03125 C 328.40625 62.78125 326.5625 61.007812 324.3125 61.003906 C 317.222656 60.996094 319.546875 60.996094 312.460938 60.988281 C 310.164062 60.988281 308.292969 62.84375 308.273438 65.140625 L 308.234375 69.15625 L 305.195312 70.683594 L 302.585938 67.824219 C 301.070312 66.160156 298.328125 65.882812 296.53125 67.683594 L 287.578125 76.636719 C 286.070312 78.148438 285.9375 80.550781 287.269531 82.21875 L 290.011719 85.660156 L 288.761719 89.027344 Z M 295.652344 94.546875 L 298.691406 86.355469 C 299.207031 84.976562 298.957031 83.429688 298.039062 82.28125 L 296.152344 79.917969 L 299.351562 76.71875 L 301.144531 78.683594 C 302.410156 80.066406 304.433594 80.453125 306.121094 79.601562 L 314.28125 75.5 C 315.683594 74.796875 316.574219 73.367188 316.589844 71.796875 L 316.609375 69.378906 L 320.28125 69.382812 C 320.496094 70.425781 319.613281 74.082031 322.882812 75.519531 L 331.398438 79.257812 C 332.9375 79.945312 334.738281 79.628906 335.964844 78.460938 L 337.84375 76.675781 L 341.523438 80.589844 L 339.996094 81.832031 C 338.578125 82.980469 338.066406 84.917969 338.730469 86.617188 L 341.824219 94.53125 C 342.414062 96.039062 343.820312 97.074219 345.433594 97.1875 L 346.703125 97.277344 L 346.722656 101.101562 L 345.632812 101.15625 C 344.054688 101.234375 342.652344 102.195312 342.011719 103.640625 L 338.179688 112.253906 C 336.878906 115.175781 339.292969 117.109375 340.25 119.171875 L 338.285156 121.035156 L 336.351562 119.410156 C 335.074219 118.339844 333.285156 118.125 331.796875 118.863281 L 323.648438 122.894531 C 321.222656 124.097656 321.363281 126.527344 321.050781 127.351562 L 316.417969 127.441406 C 316.121094 126.550781 316.402344 123.707031 313.695312 122.472656 C 306.21875 119.203125 305.914062 118.648438 304.367188 118.648438 C 302.066406 118.648438 301.109375 120.3125 299.921875 121.195312 L 297.074219 118.25 L 297.683594 117.476562 C 298.488281 116.449219 298.773438 115.109375 298.449219 113.847656 L 296.03125 104.367188 C 295.570312 102.550781 293.953125 101.261719 292.082031 101.214844 L 290.148438 101.164062 L 290.039062 97.363281 C 290.671875 97.207031 294.410156 97.898438 295.652344 94.546875 Z M 295.652344 94.546875 "/><path style=" stroke:none;fill-rule:nonzero;fill:#000000;fill-opacity:1;" d="M 318.335938 115.453125 C 327.015625 115.453125 334.078125 108.386719 334.078125 99.699219 C 334.078125 91.011719 327.015625 83.945312 318.335938 83.945312 C 309.65625 83.945312 302.59375 91.011719 302.59375 99.699219 C 302.59375 108.386719 309.65625 115.453125 318.335938 115.453125 Z M 318.335938 92.332031 C 322.394531 92.332031 325.699219 95.636719 325.699219 99.699219 C 325.699219 103.761719 322.394531 107.070312 318.335938 107.070312 C 314.277344 107.070312 310.972656 103.761719 310.972656 99.699219 C 310.972656 95.636719 314.277344 92.332031 318.335938 92.332031 Z M 318.335938 92.332031 "/><path style=" stroke:none;fill-rule:nonzero;fill:#000000;fill-opacity:1;" d="M 266.742188 106.6875 C 269.054688 106.6875 270.933594 104.8125 270.933594 102.496094 C 270.933594 100.183594 269.054688 98.304688 266.742188 98.304688 L 251.640625 98.304688 C 249.328125 98.304688 247.449219 100.183594 247.449219 102.496094 C 247.449219 104.8125 249.328125 106.6875 251.640625 106.6875 Z M 266.742188 106.6875 "/><path style=" stroke:none;fill-rule:nonzero;fill:#000000;fill-opacity:1;" d="M 358.496094 205.285156 L 284.515625 205.285156 C 278.074219 205.285156 272.835938 210.527344 272.835938 216.972656 L 272.835938 289.179688 C 272.835938 295.628906 278.074219 300.871094 284.515625 300.871094 L 358.496094 300.871094 C 364.941406 300.871094 370.179688 295.628906 370.179688 289.179688 L 370.179688 216.972656 C 370.179688 210.527344 364.941406 205.285156 358.496094 205.285156 Z M 361.800781 289.179688 C 361.800781 291.003906 360.320312 292.488281 358.496094 292.488281 L 284.515625 292.488281 C 282.695312 292.488281 281.214844 291.003906 281.214844 289.179688 L 281.214844 216.972656 C 281.214844 215.152344 282.695312 213.667969 284.515625 213.667969 L 358.496094 213.667969 C 360.320312 213.667969 361.800781 215.152344 361.800781 216.972656 Z M 361.800781 289.179688 "/><path style=" stroke:none;fill-rule:nonzero;fill:#000000;fill-opacity:1;" d="M 315.378906 223.597656 L 294.9375 223.597656 C 292.625 223.597656 290.746094 225.476562 290.746094 227.792969 L 290.746094 247.367188 C 290.746094 249.679688 292.625 251.558594 294.9375 251.558594 L 315.378906 251.558594 C 317.691406 251.558594 319.566406 249.679688 319.566406 247.367188 L 319.566406 227.792969 C 319.566406 225.476562 317.691406 223.597656 315.378906 223.597656 Z M 311.1875 243.171875 L 299.125 243.171875 L 299.125 231.984375 L 311.1875 231.984375 Z M 311.1875 243.171875 "/><path style=" stroke:none;fill-rule:nonzero;fill:#000000;fill-opacity:1;" d="M 315.378906 260.160156 L 294.9375 260.160156 C 292.625 260.160156 290.746094 262.039062 290.746094 264.351562 L 290.746094 278.359375 C 290.746094 280.675781 292.625 282.554688 294.9375 282.554688 C 297.25 282.554688 299.125 280.675781 299.125 278.359375 L 299.125 268.546875 L 311.1875 268.546875 L 311.1875 278.359375 C 311.1875 280.675781 313.066406 282.554688 315.378906 282.554688 C 317.691406 282.554688 319.566406 280.675781 319.566406 278.359375 L 319.566406 264.351562 C 319.566406 262.039062 317.691406 260.160156 315.378906 260.160156 Z M 315.378906 260.160156 "/><path style=" stroke:none;fill-rule:nonzero;fill:#000000;fill-opacity:1;" d="M 348.078125 266.832031 C 348.074219 266.832031 348.070312 266.832031 348.070312 266.832031 L 336.851562 266.855469 C 334.535156 266.859375 332.664062 268.742188 332.667969 271.054688 C 332.675781 273.367188 334.546875 275.242188 336.859375 275.242188 C 336.859375 275.242188 336.863281 275.242188 336.867188 275.242188 L 348.085938 275.21875 C 350.398438 275.214844 352.273438 273.332031 352.265625 271.019531 C 352.261719 268.707031 350.386719 266.832031 348.078125 266.832031 Z M 348.078125 266.832031 "/><path style=" stroke:none;fill-rule:nonzero;fill:#000000;fill-opacity:1;" d="M 337.035156 243.449219 C 339.347656 243.449219 341.226562 241.570312 341.226562 239.257812 C 341.226562 237.886719 343.707031 237.886719 343.707031 239.257812 C 343.707031 241.570312 345.585938 243.449219 347.898438 243.449219 C 350.210938 243.449219 352.085938 241.570312 352.085938 239.257812 C 352.085938 233.945312 347.773438 229.628906 342.464844 229.628906 C 337.160156 229.628906 332.847656 233.945312 332.847656 239.257812 C 332.847656 241.570312 334.722656 243.449219 337.035156 243.449219 Z M 337.035156 243.449219 "/><path style=" stroke:none;fill-rule:nonzero;fill:#000000;fill-opacity:1;" d="M 15.960938 300.871094 L 89.941406 300.871094 C 96.386719 300.871094 101.625 295.628906 101.625 289.179688 L 101.625 216.972656 C 101.625 210.527344 96.386719 205.285156 89.941406 205.285156 L 15.960938 205.285156 C 9.515625 205.285156 4.277344 210.527344 4.277344 216.972656 L 4.277344 289.179688 C 4.277344 295.628906 9.515625 300.871094 15.960938 300.871094 Z M 12.65625 216.972656 C 12.65625 215.152344 14.136719 213.667969 15.960938 213.667969 L 89.941406 213.667969 C 91.765625 213.667969 93.246094 215.152344 93.246094 216.972656 L 93.246094 289.179688 C 93.246094 291.003906 91.765625 292.488281 89.941406 292.488281 L 15.960938 292.488281 C 14.136719 292.488281 12.65625 291.003906 12.65625 289.179688 Z M 12.65625 216.972656 "/><path style=" stroke:none;fill-rule:nonzero;fill:#000000;fill-opacity:1;" d="M 26.382812 251.558594 L 46.824219 251.558594 C 49.136719 251.558594 51.011719 249.679688 51.011719 247.367188 L 51.011719 227.792969 C 51.011719 225.476562 49.136719 223.597656 46.824219 223.597656 L 26.382812 223.597656 C 24.070312 223.597656 22.191406 225.476562 22.191406 227.792969 L 22.191406 247.367188 C 22.191406 249.679688 24.070312 251.558594 26.382812 251.558594 Z M 30.570312 231.984375 L 42.632812 231.984375 L 42.632812 243.171875 L 30.570312 243.171875 Z M 30.570312 231.984375 "/><path style=" stroke:none;fill-rule:nonzero;fill:#000000;fill-opacity:1;" d="M 66.859375 242.472656 C 67.421875 242.472656 80.09375 242.449219 79.53125 242.449219 C 81.84375 242.445312 83.71875 240.5625 83.714844 238.25 C 83.707031 235.9375 81.832031 234.0625 79.523438 234.0625 C 78.960938 234.0625 66.289062 234.089844 66.851562 234.089844 C 64.539062 234.09375 62.664062 235.976562 62.667969 238.289062 C 62.675781 240.601562 64.546875 242.472656 66.859375 242.472656 Z M 66.859375 242.472656 "/><path style=" stroke:none;fill-rule:nonzero;fill:#000000;fill-opacity:1;" d="M 26.382812 282.554688 C 28.695312 282.554688 30.570312 280.675781 30.570312 278.359375 L 30.570312 268.546875 L 42.632812 268.546875 L 42.632812 278.359375 C 42.632812 280.675781 44.511719 282.554688 46.824219 282.554688 C 49.136719 282.554688 51.011719 280.675781 51.011719 278.359375 L 51.011719 264.351562 C 51.011719 262.039062 49.136719 260.160156 46.824219 260.160156 L 26.382812 260.160156 C 24.070312 260.160156 22.191406 262.039062 22.191406 264.351562 L 22.191406 278.359375 C 22.191406 280.675781 24.070312 282.554688 26.382812 282.554688 Z M 26.382812 282.554688 "/><path style=" stroke:none;fill-rule:nonzero;fill:#000000;fill-opacity:1;" d="M 80.410156 271.332031 C 80.410156 275.359375 77.167969 278.546875 73.203125 278.546875 C 69.234375 278.546875 65.996094 275.359375 65.996094 271.332031 C 65.996094 267.363281 69.234375 264.121094 73.203125 264.121094 C 77.167969 264.121094 80.410156 267.363281 80.410156 271.332031 Z M 80.410156 271.332031 "/></g></svg>