<svg xmlns="http://www.w3.org/2000/svg" xmlns:xlink="http://www.w3.org/1999/xlink" width="500" zoomAndPan="magnify" viewBox="0 0 375 374.999991" height="500" preserveAspectRatio="xMidYMid meet" version="1.2"><defs><clipPath id="e9a221c88a"><path d="M 150 224 L 225 224 L 225 298.433594 L 150 298.433594 Z M 150 224 "/></clipPath><clipPath id="551772d48f"><path d="M 156 76.433594 L 219 76.433594 L 219 121 L 156 121 Z M 156 76.433594 "/></clipPath></defs><g id="b49d3fdac0"><rect x="0" width="375" y="0" height="374.999991" style="fill:#ffffff;fill-opacity:1;stroke:none;"/><rect x="0" width="375" y="0" height="374.999991" style="fill:#ffffff;fill-opacity:1;stroke:none;"/><g clip-rule="nonzero" clip-path="url(#e9a221c88a)"><path style=" stroke:none;fill-rule:nonzero;fill:#545454;fill-opacity:1;" d="M 170.152344 230.855469 C 168.550781 229.59375 166.25 229.730469 164.808594 231.175781 L 157.25 238.730469 C 155.808594 240.175781 155.667969 242.46875 156.929688 244.074219 L 161.449219 249.828125 C 161.539062 249.945312 161.503906 250.140625 161.441406 250.285156 L 161.269531 250.695312 C 161.214844 250.832031 161.097656 250.996094 160.953125 251.015625 L 153.675781 251.902344 C 151.65625 252.148438 150.132812 253.871094 150.132812 255.902344 L 150.132812 266.570312 C 150.132812 268.605469 151.65625 270.324219 153.679688 270.574219 L 160.972656 271.460938 C 161.113281 271.476562 161.230469 271.640625 161.292969 271.796875 L 161.449219 272.183594 C 161.511719 272.328125 161.542969 272.523438 161.453125 272.636719 L 156.925781 278.402344 C 155.667969 280.007812 155.808594 282.300781 157.25 283.742188 L 164.808594 291.300781 C 166.253906 292.742188 168.550781 292.875 170.152344 291.613281 L 175.890625 287.085938 C 176.042969 286.96875 176.265625 287.046875 176.320312 287.074219 L 176.773438 287.257812 C 176.914062 287.316406 177.066406 287.429688 177.085938 287.574219 L 177.949219 294.863281 C 178.191406 296.886719 179.914062 298.414062 181.953125 298.414062 L 192.640625 298.414062 C 194.683594 298.414062 196.40625 296.882812 196.644531 294.855469 L 197.507812 287.570312 C 197.527344 287.425781 197.683594 287.3125 197.824219 287.253906 L 198.261719 287.070312 C 198.40625 287.011719 198.601562 286.980469 198.714844 287.070312 L 204.46875 291.613281 C 206.070312 292.875 208.371094 292.742188 209.816406 291.296875 L 217.371094 283.746094 C 218.820312 282.296875 218.953125 279.996094 217.6875 278.394531 L 213.148438 272.644531 C 213.054688 272.527344 213.085938 272.335938 213.148438 272.195312 L 213.324219 271.78125 C 213.378906 271.644531 213.496094 271.476562 213.640625 271.460938 L 220.917969 270.574219 C 222.9375 270.324219 224.460938 268.605469 224.460938 266.570312 L 224.460938 255.902344 C 224.460938 253.867188 222.933594 252.144531 220.914062 251.902344 L 213.390625 250.828125 L 213.160156 249.816406 L 217.683594 244.082031 C 218.953125 242.476562 218.820312 240.175781 217.371094 238.730469 L 209.816406 231.175781 C 208.371094 229.730469 206.074219 229.59375 204.472656 230.855469 L 198.707031 235.386719 C 198.597656 235.480469 198.394531 235.441406 198.25 235.382812 L 197.816406 235.203125 C 197.679688 235.152344 197.523438 235.039062 197.507812 234.890625 L 196.644531 227.621094 C 196.40625 225.589844 194.683594 224.058594 192.640625 224.058594 L 181.953125 224.058594 C 179.914062 224.058594 178.191406 225.585938 177.949219 227.617188 L 176.917969 235.140625 L 175.902344 235.375 Z M 182.1875 235.488281 L 182.933594 229.199219 L 191.65625 229.199219 L 192.40625 235.496094 C 192.914062 239.792969 198.503906 242.070312 201.882812 239.425781 L 206.875 235.503906 L 213.042969 241.667969 L 209.125 246.632812 C 206.421875 250.050781 208.777344 255.59375 213.035156 256.117188 L 219.320312 256.882812 L 219.320312 265.589844 L 213.015625 266.355469 C 208.796875 266.878906 206.414062 272.410156 209.113281 275.832031 L 213.042969 280.804688 L 206.878906 286.96875 L 201.894531 283.035156 C 200.320312 281.796875 198.152344 281.535156 196.253906 282.34375 L 195.890625 282.492188 C 193.976562 283.269531 192.640625 284.984375 192.40625 286.964844 L 191.65625 293.277344 L 182.933594 293.277344 L 182.1875 286.964844 C 181.679688 282.675781 176.097656 280.386719 172.714844 283.050781 L 167.742188 286.96875 L 161.578125 280.800781 L 165.496094 275.8125 C 168.136719 272.441406 165.875 266.878906 161.589844 266.355469 L 155.273438 265.589844 L 155.273438 256.882812 L 161.574219 256.117188 C 165.808594 255.601562 168.164062 250.050781 165.488281 246.652344 L 161.578125 241.671875 L 167.746094 235.503906 L 172.722656 239.410156 C 176.117188 242.082031 181.679688 239.792969 182.1875 235.488281 Z M 182.1875 235.488281 "/></g><path style=" stroke:none;fill-rule:nonzero;fill:#545454;fill-opacity:1;" d="M 187.296875 277.371094 C 196.191406 277.371094 203.429688 270.132812 203.429688 261.238281 C 203.429688 252.34375 196.191406 245.105469 187.296875 245.105469 C 178.402344 245.105469 171.164062 252.34375 171.164062 261.238281 C 171.164062 270.132812 178.402344 277.371094 187.296875 277.371094 Z M 187.296875 250.246094 C 193.359375 250.246094 198.289062 255.175781 198.289062 261.238281 C 198.289062 267.300781 193.359375 272.230469 187.296875 272.230469 C 181.234375 272.230469 176.304688 267.300781 176.304688 261.238281 C 176.304688 255.175781 181.234375 250.246094 187.296875 250.246094 Z M 187.296875 250.246094 "/><g clip-rule="nonzero" clip-path="url(#551772d48f)"><path style=" stroke:none;fill-rule:nonzero;fill:#545454;fill-opacity:1;" d="M 156.230469 106.53125 C 156.230469 115.664062 172.105469 120.59375 187.035156 120.59375 C 202.269531 120.59375 218.027344 115.207031 218.027344 106.238281 L 218.265625 91.992188 C 218.433594 91.382812 218.546875 90.757812 218.546875 90.105469 C 218.546875 81.238281 202.445312 76.457031 187.296875 76.457031 C 172.148438 76.457031 156.046875 81.238281 156.046875 90.105469 C 156.046875 90.199219 156.074219 90.285156 156.078125 90.378906 C 156.027344 91.347656 156.160156 99.019531 156.230469 106.53125 Z M 187.035156 115.453125 C 171.371094 115.453125 161.371094 110.167969 161.371094 106.5 L 161.273438 97.878906 C 173.222656 105.578125 200.644531 105.734375 213.023438 98.074219 L 212.886719 106.195312 C 212.886719 109.96875 202.816406 115.453125 187.035156 115.453125 Z M 187.296875 81.59375 C 203.234375 81.59375 213.40625 86.636719 213.40625 90.105469 C 213.40625 93.574219 203.234375 98.617188 187.296875 98.617188 C 171.359375 98.617188 161.1875 93.574219 161.1875 90.105469 C 161.1875 86.636719 171.359375 81.59375 187.296875 81.59375 Z M 187.296875 81.59375 "/></g><path style=" stroke:none;fill-rule:nonzero;fill:#545454;fill-opacity:1;" d="M 216.101562 119.761719 C 214.679688 119.703125 213.480469 120.785156 213.410156 122.203125 L 213.136719 127.886719 C 213.136719 131.660156 203.019531 137.148438 187.164062 137.148438 C 171.417969 137.148438 161.371094 131.863281 161.371094 128.144531 L 161.183594 122.246094 C 161.140625 120.828125 159.953125 119.648438 158.535156 119.761719 C 157.117188 119.804688 156.003906 120.988281 156.050781 122.40625 L 156.234375 128.222656 C 156.234375 137.359375 172.167969 142.285156 187.164062 142.285156 C 202.457031 142.285156 218.277344 136.898438 218.273438 128.011719 L 218.542969 122.453125 C 218.609375 121.035156 217.519531 119.832031 216.101562 119.761719 Z M 216.101562 119.761719 "/><path style=" stroke:none;fill-rule:nonzero;fill:#545454;fill-opacity:1;" d="M 286.132812 174.613281 L 286.308594 188.21875 C 286.328125 189.625 287.472656 190.757812 288.878906 190.757812 C 288.886719 190.757812 288.898438 190.757812 288.910156 190.757812 C 290.328125 190.738281 291.464844 189.570312 291.445312 188.152344 L 291.273438 174.5625 C 291.242188 170.265625 287.71875 166.769531 283.421875 166.769531 L 219.078125 166.777344 C 213.621094 166.367188 213.023438 163.535156 213.886719 158.195312 C 214.011719 157.441406 214.082031 156.855469 214.078125 156.484375 C 216.703125 154.4375 218.273438 151.988281 218.273438 149.191406 L 218.542969 143.632812 C 218.609375 142.21875 217.519531 141.011719 216.101562 140.945312 C 214.679688 140.867188 213.480469 141.96875 213.410156 143.386719 L 213.136719 149.066406 C 213.136719 152.84375 203.019531 158.328125 187.164062 158.328125 C 171.417969 158.328125 161.371094 153.046875 161.371094 149.328125 L 161.183594 143.429688 C 161.140625 142.011719 159.953125 140.867188 158.535156 140.941406 C 157.117188 140.984375 156.003906 142.171875 156.050781 143.589844 L 156.234375 149.40625 C 156.234375 152.9375 158.632812 155.835938 162.421875 158.066406 C 163.265625 163.300781 162.824219 166.34375 157.441406 166.769531 L 92.90625 166.769531 C 88.613281 166.769531 85.089844 170.265625 85.058594 174.546875 L 84.882812 188.152344 C 84.863281 189.574219 86 190.738281 87.417969 190.757812 C 87.429688 190.757812 87.441406 190.757812 87.453125 190.757812 C 88.859375 190.757812 90.003906 189.625 90.023438 188.21875 L 90.195312 174.601562 C 90.207031 173.117188 91.421875 171.910156 92.90625 171.910156 L 157.636719 171.902344 C 164.449219 171.386719 168.234375 167.464844 167.875 160.523438 C 179.894531 164.679688 197.050781 164.464844 208.511719 159.636719 C 207.824219 166.90625 211.28125 171.347656 218.886719 171.910156 L 283.421875 171.910156 C 284.90625 171.910156 286.121094 173.117188 286.132812 174.613281 Z M 286.132812 174.613281 "/><path style=" stroke:none;fill-rule:nonzero;fill:#545454;fill-opacity:1;" d="M 179.316406 215.824219 C 179.328125 215.824219 179.335938 215.824219 179.347656 215.824219 C 180.753906 215.824219 181.898438 214.695312 181.917969 213.285156 L 182.378906 175.527344 C 182.394531 174.109375 181.257812 172.945312 179.839844 172.925781 C 179.828125 172.925781 179.820312 172.925781 179.808594 172.925781 C 178.402344 172.925781 177.253906 174.054688 177.238281 175.464844 L 176.777344 213.222656 C 176.761719 214.640625 177.898438 215.808594 179.316406 215.824219 Z M 179.316406 215.824219 "/><path style=" stroke:none;fill-rule:nonzero;fill:#545454;fill-opacity:1;" d="M 194.75 215.824219 C 194.761719 215.824219 194.773438 215.824219 194.785156 215.824219 C 196.1875 215.824219 197.335938 214.695312 197.351562 213.285156 L 197.816406 175.527344 C 197.832031 174.109375 196.699219 172.945312 195.277344 172.925781 C 195.265625 172.925781 195.257812 172.925781 195.246094 172.925781 C 193.839844 172.925781 192.695312 174.054688 192.675781 175.464844 L 192.214844 213.222656 C 192.199219 214.640625 193.332031 215.804688 194.75 215.824219 Z M 194.75 215.824219 "/><path style=" stroke:none;fill-rule:nonzero;fill:#545454;fill-opacity:1;" d="M 221.214844 224.132812 C 219.796875 224.132812 218.644531 225.28125 218.644531 226.703125 C 218.644531 228.121094 219.796875 229.269531 221.214844 229.269531 C 225.058594 229.269531 227.4375 225.574219 227.4375 222.148438 L 227.4375 191.957031 C 227.4375 188.320312 224.480469 185.359375 220.839844 185.359375 L 209.167969 185.359375 C 207.75 185.359375 206.597656 186.511719 206.597656 187.929688 C 206.597656 189.347656 207.75 190.5 209.167969 190.5 L 220.839844 190.5 C 221.644531 190.5 222.300781 191.152344 222.300781 191.957031 L 222.300781 222.148438 C 222.300781 223.113281 221.742188 224.132812 221.214844 224.132812 Z M 221.214844 224.132812 "/><path style=" stroke:none;fill-rule:nonzero;fill:#545454;fill-opacity:1;" d="M 164.816406 185.359375 L 153.140625 185.359375 C 149.503906 185.359375 146.546875 188.320312 146.546875 191.957031 L 146.546875 222.148438 C 146.546875 225.574219 148.925781 229.269531 152.769531 229.269531 C 154.1875 229.269531 155.339844 228.121094 155.339844 226.703125 C 155.339844 225.28125 154.1875 224.132812 152.769531 224.132812 C 152.242188 224.132812 151.683594 223.113281 151.683594 222.148438 L 151.683594 191.957031 C 151.683594 191.152344 152.339844 190.5 153.140625 190.5 L 164.816406 190.5 C 166.234375 190.5 167.382812 189.347656 167.382812 187.929688 C 167.382812 186.511719 166.234375 185.359375 164.816406 185.359375 Z M 164.816406 185.359375 "/><path style=" stroke:none;fill-rule:nonzero;fill:#545454;fill-opacity:1;" d="M 108.1875 155.75 C 120.855469 155.75 131.164062 145.441406 131.164062 132.769531 C 131.164062 120.101562 120.855469 109.796875 108.1875 109.796875 C 95.515625 109.796875 85.210938 120.101562 85.210938 132.769531 C 85.210938 145.441406 95.515625 155.75 108.1875 155.75 Z M 90.609375 135.339844 L 98.035156 135.339844 C 98.980469 139.0625 101.898438 141.976562 105.617188 142.921875 L 105.617188 150.351562 C 97.851562 149.214844 91.742188 143.105469 90.609375 135.339844 Z M 108.1875 127.40625 C 111.144531 127.40625 113.550781 129.8125 113.550781 132.769531 C 113.550781 135.730469 111.144531 138.136719 108.1875 138.136719 C 105.226562 138.136719 102.820312 135.730469 102.820312 132.769531 C 102.820312 129.8125 105.226562 127.40625 108.1875 127.40625 Z M 110.757812 150.351562 L 110.757812 142.921875 C 114.476562 141.976562 117.390625 139.0625 118.335938 135.339844 L 125.765625 135.339844 C 124.628906 143.105469 118.523438 149.214844 110.757812 150.351562 Z M 125.765625 130.203125 L 118.335938 130.203125 C 117.390625 126.480469 114.476562 123.566406 110.757812 122.621094 L 110.757812 115.195312 C 118.523438 116.328125 124.628906 122.433594 125.765625 130.203125 Z M 105.617188 115.195312 L 105.617188 122.621094 C 101.898438 123.566406 98.980469 126.480469 98.039062 130.203125 L 90.609375 130.203125 C 91.742188 122.433594 97.851562 116.328125 105.617188 115.195312 Z M 105.617188 115.195312 "/><path style=" stroke:none;fill-rule:nonzero;fill:#545454;fill-opacity:1;" d="M 146.460938 137.828125 C 147.878906 137.828125 149.03125 136.675781 149.03125 135.257812 C 149.03125 133.839844 147.878906 132.6875 146.460938 132.6875 L 137.871094 132.6875 C 136.449219 132.6875 135.300781 133.839844 135.300781 135.257812 C 135.300781 136.675781 136.449219 137.828125 137.871094 137.828125 Z M 146.460938 137.828125 "/><path style=" stroke:none;fill-rule:nonzero;fill:#545454;fill-opacity:1;" d="M 247.546875 127.097656 C 246.148438 127.164062 245.058594 128.339844 245.101562 129.738281 L 245.3125 137.023438 C 245.351562 138.386719 246.449219 139.484375 247.816406 139.515625 L 249.488281 139.558594 L 250.175781 142.257812 L 249.199219 143.496094 C 248.40625 144.507812 248.480469 145.945312 249.371094 146.871094 L 254.398438 152.070312 C 255.359375 153.0625 256.933594 153.121094 257.960938 152.195312 L 259.5625 150.757812 L 261.457031 151.617188 L 261.804688 153.597656 C 262.019531 154.828125 263.089844 155.722656 264.335938 155.722656 C 264.679688 155.722656 271.785156 155.589844 271.441406 155.585938 C 272.621094 155.5625 273.636719 154.738281 273.894531 153.585938 L 274.296875 151.824219 L 276.691406 150.636719 L 278.347656 152.027344 C 279.351562 152.871094 280.824219 152.828125 281.769531 151.925781 L 286.132812 147.789062 C 287.007812 146.957031 287.191406 145.632812 286.570312 144.601562 L 285.070312 142.105469 L 286.234375 139.492188 L 287.785156 139.414062 C 289.15625 139.347656 290.234375 138.210938 290.226562 136.835938 L 290.1875 129.644531 C 290.175781 128.304688 289.136719 127.191406 287.796875 127.097656 L 286.261719 126.992188 L 285.640625 125.402344 C 286.695312 124.390625 288.101562 123.929688 288.21875 122.261719 C 288.265625 121.546875 288.011719 120.847656 287.523438 120.328125 L 281.605469 114.035156 C 281.136719 113.535156 280.488281 113.246094 279.804688 113.226562 C 278.332031 113.09375 277.667969 114.363281 276.175781 115.625 L 273.988281 114.664062 L 273.894531 112.296875 C 273.839844 110.917969 272.707031 109.832031 271.328125 109.828125 C 266.980469 109.824219 268.40625 109.824219 264.0625 109.820312 C 262.652344 109.820312 261.503906 110.957031 261.492188 112.363281 L 261.46875 114.824219 L 259.605469 115.761719 L 258.007812 114.007812 C 257.074219 112.988281 255.394531 112.820312 254.289062 113.921875 L 248.800781 119.410156 C 247.878906 120.335938 247.796875 121.808594 248.613281 122.828125 L 250.292969 124.9375 L 249.527344 127.003906 Z M 253.753906 130.382812 L 255.617188 125.367188 C 255.933594 124.519531 255.78125 123.574219 255.214844 122.867188 L 254.058594 121.417969 L 256.023438 119.457031 L 257.121094 120.664062 C 257.898438 121.511719 259.136719 121.75 260.175781 121.226562 L 265.175781 118.710938 C 266.039062 118.28125 266.582031 117.40625 266.59375 116.441406 L 266.605469 114.960938 L 268.859375 114.964844 C 268.988281 115.601562 268.445312 117.84375 270.453125 118.722656 L 275.675781 121.015625 C 276.617188 121.4375 277.722656 121.242188 278.472656 120.527344 L 279.628906 119.433594 L 281.886719 121.832031 L 280.945312 122.59375 C 280.078125 123.296875 279.765625 124.484375 280.171875 125.523438 L 282.066406 130.375 C 282.429688 131.300781 283.292969 131.933594 284.28125 132.003906 L 285.058594 132.058594 L 285.074219 134.402344 L 284.40625 134.4375 C 283.4375 134.480469 282.578125 135.070312 282.183594 135.957031 L 279.835938 141.238281 C 279.035156 143.027344 280.515625 144.214844 281.101562 145.476562 L 279.898438 146.617188 L 278.710938 145.625 C 277.929688 144.964844 276.832031 144.835938 275.921875 145.285156 L 270.921875 147.757812 C 269.433594 148.492188 269.519531 149.984375 269.328125 150.488281 L 266.488281 150.542969 C 266.304688 149.996094 266.476562 148.253906 264.816406 147.5 C 260.234375 145.496094 260.046875 145.15625 259.097656 145.15625 C 257.6875 145.15625 257.101562 146.175781 256.371094 146.71875 L 254.625 144.910156 L 255 144.4375 C 255.492188 143.808594 255.664062 142.988281 255.46875 142.210938 L 253.984375 136.40625 C 253.703125 135.289062 252.710938 134.5 251.5625 134.472656 L 250.378906 134.441406 L 250.3125 132.109375 C 250.699219 132.015625 252.992188 132.4375 253.753906 130.382812 Z M 253.753906 130.382812 "/><path style=" stroke:none;fill-rule:nonzero;fill:#545454;fill-opacity:1;" d="M 267.664062 143.199219 C 272.988281 143.199219 277.320312 138.867188 277.320312 133.542969 C 277.320312 128.21875 272.988281 123.886719 267.664062 123.886719 C 262.339844 123.886719 258.007812 128.21875 258.007812 133.542969 C 258.007812 138.867188 262.339844 143.199219 267.664062 143.199219 Z M 267.664062 129.027344 C 270.152344 129.027344 272.179688 131.054688 272.179688 133.542969 C 272.179688 136.03125 270.152344 138.058594 267.664062 138.058594 C 265.175781 138.058594 263.148438 136.03125 263.148438 133.542969 C 263.148438 131.054688 265.175781 129.027344 267.664062 129.027344 Z M 267.664062 129.027344 "/><path style=" stroke:none;fill-rule:nonzero;fill:#545454;fill-opacity:1;" d="M 236.023438 137.828125 C 237.441406 137.828125 238.59375 136.675781 238.59375 135.257812 C 238.59375 133.839844 237.441406 132.6875 236.023438 132.6875 L 226.761719 132.6875 C 225.34375 132.6875 224.191406 133.839844 224.191406 135.257812 C 224.191406 136.675781 225.34375 137.828125 226.761719 137.828125 Z M 236.023438 137.828125 "/><path style=" stroke:none;fill-rule:nonzero;fill:#545454;fill-opacity:1;" d="M 292.292969 198.25 L 246.921875 198.25 C 242.972656 198.25 239.757812 201.460938 239.757812 205.414062 L 239.757812 249.664062 C 239.757812 253.617188 242.972656 256.828125 246.921875 256.828125 L 292.292969 256.828125 C 296.246094 256.828125 299.457031 253.617188 299.457031 249.664062 L 299.457031 205.414062 C 299.457031 201.460938 296.246094 198.25 292.292969 198.25 Z M 294.320312 249.664062 C 294.320312 250.78125 293.410156 251.691406 292.292969 251.691406 L 246.921875 251.691406 C 245.804688 251.691406 244.898438 250.78125 244.898438 249.664062 L 244.898438 205.414062 C 244.898438 204.296875 245.804688 203.386719 246.921875 203.386719 L 292.292969 203.386719 C 293.410156 203.386719 294.320312 204.296875 294.320312 205.414062 Z M 294.320312 249.664062 "/><path style=" stroke:none;fill-rule:nonzero;fill:#545454;fill-opacity:1;" d="M 265.851562 209.472656 L 253.3125 209.472656 C 251.894531 209.472656 250.746094 210.625 250.746094 212.042969 L 250.746094 224.039062 C 250.746094 225.457031 251.894531 226.609375 253.3125 226.609375 L 265.851562 226.609375 C 267.269531 226.609375 268.417969 225.457031 268.417969 224.039062 L 268.417969 212.042969 C 268.417969 210.625 267.269531 209.472656 265.851562 209.472656 Z M 263.28125 221.46875 L 255.882812 221.46875 L 255.882812 214.613281 L 263.28125 214.613281 Z M 263.28125 221.46875 "/><path style=" stroke:none;fill-rule:nonzero;fill:#545454;fill-opacity:1;" d="M 265.851562 231.878906 L 253.3125 231.878906 C 251.894531 231.878906 250.746094 233.03125 250.746094 234.449219 L 250.746094 243.03125 C 250.746094 244.453125 251.894531 245.601562 253.3125 245.601562 C 254.730469 245.601562 255.882812 244.453125 255.882812 243.03125 L 255.882812 237.019531 L 263.28125 237.019531 L 263.28125 243.03125 C 263.28125 244.453125 264.429688 245.601562 265.851562 245.601562 C 267.269531 245.601562 268.417969 244.453125 268.417969 243.03125 L 268.417969 234.449219 C 268.417969 233.03125 267.269531 231.878906 265.851562 231.878906 Z M 265.851562 231.878906 "/><path style=" stroke:none;fill-rule:nonzero;fill:#545454;fill-opacity:1;" d="M 285.902344 235.96875 C 285.902344 235.96875 285.898438 235.96875 285.898438 235.96875 L 279.019531 235.980469 C 277.601562 235.984375 276.449219 237.136719 276.453125 238.554688 C 276.457031 239.972656 277.605469 241.121094 279.023438 241.121094 C 279.023438 241.121094 279.027344 241.121094 279.027344 241.121094 L 285.910156 241.109375 C 287.328125 241.105469 288.476562 239.953125 288.472656 238.53125 C 288.46875 237.117188 287.320312 235.96875 285.902344 235.96875 Z M 285.902344 235.96875 "/><path style=" stroke:none;fill-rule:nonzero;fill:#545454;fill-opacity:1;" d="M 279.132812 221.636719 C 280.550781 221.636719 281.703125 220.488281 281.703125 219.066406 C 281.703125 218.230469 283.222656 218.230469 283.222656 219.066406 C 283.222656 220.488281 284.375 221.636719 285.792969 221.636719 C 287.210938 221.636719 288.363281 220.488281 288.363281 219.066406 C 288.363281 215.816406 285.714844 213.167969 282.460938 213.167969 C 279.207031 213.167969 276.5625 215.816406 276.5625 219.066406 C 276.5625 220.488281 277.714844 221.636719 279.132812 221.636719 Z M 279.132812 221.636719 "/><path style=" stroke:none;fill-rule:nonzero;fill:#545454;fill-opacity:1;" d="M 82.226562 256.828125 L 127.597656 256.828125 C 131.546875 256.828125 134.761719 253.617188 134.761719 249.664062 L 134.761719 205.414062 C 134.761719 201.460938 131.546875 198.25 127.597656 198.25 L 82.226562 198.25 C 78.273438 198.25 75.058594 201.460938 75.058594 205.414062 L 75.058594 249.664062 C 75.058594 253.617188 78.273438 256.828125 82.226562 256.828125 Z M 80.199219 205.414062 C 80.199219 204.296875 81.109375 203.386719 82.226562 203.386719 L 127.597656 203.386719 C 128.714844 203.386719 129.621094 204.296875 129.621094 205.414062 L 129.621094 249.664062 C 129.621094 250.78125 128.714844 251.691406 127.597656 251.691406 L 82.226562 251.691406 C 81.109375 251.691406 80.199219 250.78125 80.199219 249.664062 Z M 80.199219 205.414062 "/><path style=" stroke:none;fill-rule:nonzero;fill:#545454;fill-opacity:1;" d="M 88.617188 226.609375 L 101.152344 226.609375 C 102.570312 226.609375 103.722656 225.457031 103.722656 224.039062 L 103.722656 212.042969 C 103.722656 210.625 102.570312 209.472656 101.152344 209.472656 L 88.617188 209.472656 C 87.199219 209.472656 86.046875 210.625 86.046875 212.042969 L 86.046875 224.039062 C 86.046875 225.457031 87.199219 226.609375 88.617188 226.609375 Z M 91.1875 214.613281 L 98.582031 214.613281 L 98.582031 221.46875 L 91.1875 221.46875 Z M 91.1875 214.613281 "/><path style=" stroke:none;fill-rule:nonzero;fill:#545454;fill-opacity:1;" d="M 113.441406 221.039062 C 113.785156 221.039062 121.554688 221.027344 121.210938 221.027344 C 122.628906 221.023438 123.777344 219.871094 123.777344 218.449219 C 123.773438 217.035156 122.625 215.886719 121.207031 215.886719 C 120.863281 215.886719 113.089844 215.902344 113.433594 215.902344 C 112.015625 215.90625 110.867188 217.058594 110.871094 218.476562 C 110.875 219.894531 112.023438 221.039062 113.441406 221.039062 Z M 113.441406 221.039062 "/><path style=" stroke:none;fill-rule:nonzero;fill:#545454;fill-opacity:1;" d="M 88.617188 245.601562 C 90.035156 245.601562 91.1875 244.453125 91.1875 243.03125 L 91.1875 237.019531 L 98.582031 237.019531 L 98.582031 243.03125 C 98.582031 244.453125 99.734375 245.601562 101.152344 245.601562 C 102.570312 245.601562 103.722656 244.453125 103.722656 243.03125 L 103.722656 234.449219 C 103.722656 233.03125 102.570312 231.878906 101.152344 231.878906 L 88.617188 231.878906 C 87.199219 231.878906 86.046875 233.03125 86.046875 234.449219 L 86.046875 243.03125 C 86.046875 244.453125 87.199219 245.601562 88.617188 245.601562 Z M 88.617188 245.601562 "/><path style=" stroke:none;fill-rule:nonzero;fill:#545454;fill-opacity:1;" d="M 121.75 238.726562 C 121.75 241.191406 119.761719 243.144531 117.332031 243.144531 C 114.898438 243.144531 112.910156 241.191406 112.910156 238.726562 C 112.910156 236.292969 114.898438 234.308594 117.332031 234.308594 C 119.761719 234.308594 121.75 236.292969 121.75 238.726562 Z M 121.75 238.726562 "/></g></svg>