<svg xmlns="http://www.w3.org/2000/svg" xmlns:xlink="http://www.w3.org/1999/xlink" width="500" zoomAndPan="magnify" viewBox="0 0 375 374.999991" height="500" preserveAspectRatio="xMidYMid meet" version="1.2"><defs><clipPath id="c6bcbd720a"><path d="M 0 25.3125 L 375 25.3125 L 375 283 L 0 283 Z M 0 25.3125 "/></clipPath></defs><g id="293c30c6b2"><rect x="0" width="375" y="0" height="374.999991" style="fill:#ffffff;fill-opacity:1;stroke:none;"/><rect x="0" width="375" y="0" height="374.999991" style="fill:#ffffff;fill-opacity:1;stroke:none;"/><g clip-rule="nonzero" clip-path="url(#c6bcbd720a)"><path style=" stroke:none;fill-rule:nonzero;fill:#000000;fill-opacity:1;" d="M 354.0625 282.523438 L 20.925781 282.523438 C 20.238281 282.519531 19.558594 282.484375 18.875 282.414062 C 18.191406 282.347656 17.515625 282.246094 16.84375 282.109375 C 16.171875 281.972656 15.511719 281.808594 14.855469 281.605469 C 14.199219 281.40625 13.554688 281.175781 12.921875 280.910156 C 12.289062 280.648438 11.671875 280.351562 11.070312 280.027344 C 10.464844 279.703125 9.878906 279.351562 9.308594 278.96875 C 8.742188 278.585938 8.191406 278.175781 7.664062 277.742188 C 7.132812 277.304688 6.628906 276.84375 6.144531 276.359375 C 5.660156 275.875 5.199219 275.367188 4.765625 274.835938 C 4.332031 274.304688 3.925781 273.753906 3.546875 273.183594 C 3.164062 272.613281 2.816406 272.023438 2.492188 271.417969 C 2.167969 270.8125 1.878906 270.195312 1.617188 269.558594 C 1.355469 268.925781 1.125 268.28125 0.925781 267.625 C 0.726562 266.96875 0.5625 266.304688 0.429688 265.628906 C 0.292969 264.957031 0.195312 264.28125 0.128906 263.597656 C 0.0625 262.914062 0.0273438 262.230469 0.0273438 261.542969 L 0.0273438 46.371094 C 0.0273438 45.683594 0.0625 45 0.128906 44.316406 C 0.195312 43.636719 0.296875 42.957031 0.429688 42.285156 C 0.5625 41.613281 0.730469 40.949219 0.929688 40.292969 C 1.128906 39.636719 1.359375 38.992188 1.621094 38.359375 C 1.882812 37.726562 2.175781 37.109375 2.496094 36.503906 C 2.820312 35.898438 3.171875 35.3125 3.550781 34.742188 C 3.933594 34.171875 4.339844 33.621094 4.773438 33.089844 C 5.207031 32.5625 5.667969 32.054688 6.148438 31.570312 C 6.632812 31.082031 7.140625 30.625 7.667969 30.1875 C 8.199219 29.753906 8.746094 29.34375 9.316406 28.964844 C 9.882812 28.582031 10.472656 28.230469 11.074219 27.90625 C 11.675781 27.582031 12.296875 27.289062 12.925781 27.027344 C 13.558594 26.761719 14.203125 26.53125 14.859375 26.332031 C 15.511719 26.132812 16.175781 25.964844 16.847656 25.828125 C 17.519531 25.695312 18.195312 25.59375 18.875 25.523438 C 19.558594 25.457031 20.242188 25.421875 20.925781 25.417969 L 354.0625 25.417969 C 354.75 25.421875 355.433594 25.453125 356.113281 25.523438 C 356.796875 25.589844 357.472656 25.691406 358.144531 25.828125 C 358.816406 25.960938 359.480469 26.128906 360.136719 26.328125 C 360.789062 26.527344 361.433594 26.757812 362.066406 27.019531 C 362.699219 27.285156 363.320312 27.578125 363.921875 27.898438 C 364.527344 28.222656 365.113281 28.578125 365.683594 28.957031 C 366.253906 29.339844 366.804688 29.746094 367.332031 30.183594 C 367.863281 30.617188 368.371094 31.078125 368.855469 31.5625 C 369.339844 32.046875 369.796875 32.554688 370.234375 33.085938 C 370.667969 33.613281 371.074219 34.164062 371.457031 34.734375 C 371.835938 35.304688 372.1875 35.894531 372.511719 36.496094 C 372.835938 37.101562 373.128906 37.722656 373.390625 38.355469 C 373.65625 38.988281 373.886719 39.632812 374.085938 40.289062 C 374.285156 40.945312 374.449219 41.609375 374.585938 42.285156 C 374.71875 42.957031 374.820312 43.632812 374.890625 44.316406 C 374.957031 45 374.992188 45.683594 374.992188 46.371094 L 374.992188 261.546875 C 374.992188 262.234375 374.957031 262.917969 374.890625 263.601562 C 374.824219 264.285156 374.722656 264.964844 374.585938 265.636719 C 374.453125 266.308594 374.285156 266.976562 374.085938 267.632812 C 373.886719 268.289062 373.65625 268.933594 373.394531 269.566406 C 373.132812 270.203125 372.839844 270.820312 372.515625 271.425781 C 372.195312 272.03125 371.84375 272.621094 371.460938 273.191406 C 371.082031 273.761719 370.671875 274.3125 370.238281 274.84375 C 369.804688 275.375 369.34375 275.882812 368.859375 276.367188 C 368.375 276.851562 367.867188 277.3125 367.335938 277.75 C 366.808594 278.183594 366.257812 278.59375 365.6875 278.976562 C 365.117188 279.355469 364.53125 279.710938 363.925781 280.035156 C 363.324219 280.359375 362.703125 280.652344 362.070312 280.914062 C 361.4375 281.179688 360.792969 281.410156 360.136719 281.609375 C 359.480469 281.808594 358.820312 281.976562 358.144531 282.113281 C 357.472656 282.246094 356.796875 282.347656 356.113281 282.417969 C 355.433594 282.484375 354.75 282.519531 354.0625 282.523438 Z M 20.925781 33.226562 C 20.0625 33.226562 19.210938 33.3125 18.367188 33.484375 C 17.523438 33.652344 16.703125 33.902344 15.910156 34.234375 C 15.113281 34.566406 14.359375 34.972656 13.644531 35.449219 C 12.929688 35.929688 12.269531 36.476562 11.660156 37.085938 C 11.050781 37.695312 10.507812 38.359375 10.03125 39.074219 C 9.554688 39.792969 9.152344 40.550781 8.820312 41.347656 C 8.492188 42.140625 8.242188 42.964844 8.074219 43.808594 C 7.90625 44.652344 7.824219 45.507812 7.824219 46.371094 L 7.824219 261.546875 C 7.824219 262.410156 7.90625 263.265625 8.074219 264.113281 C 8.242188 264.957031 8.488281 265.78125 8.816406 266.578125 C 9.144531 267.375 9.550781 268.132812 10.027344 268.851562 C 10.503906 269.566406 11.046875 270.234375 11.65625 270.84375 C 12.261719 271.457031 12.925781 272 13.640625 272.480469 C 14.355469 272.960938 15.109375 273.371094 15.90625 273.703125 C 16.703125 274.035156 17.519531 274.285156 18.367188 274.457031 C 19.210938 274.625 20.0625 274.714844 20.925781 274.714844 L 354.0625 274.714844 C 354.925781 274.714844 355.78125 274.628906 356.625 274.457031 C 357.472656 274.289062 358.292969 274.039062 359.089844 273.707031 C 359.886719 273.375 360.644531 272.96875 361.359375 272.488281 C 362.078125 272.007812 362.738281 271.460938 363.351562 270.847656 C 363.960938 270.238281 364.503906 269.574219 364.984375 268.855469 C 365.460938 268.136719 365.867188 267.378906 366.195312 266.578125 C 366.527344 265.78125 366.773438 264.957031 366.941406 264.113281 C 367.113281 263.265625 367.195312 262.410156 367.195312 261.542969 L 367.195312 46.371094 C 367.195312 45.507812 367.109375 44.652344 366.941406 43.804688 C 366.773438 42.960938 366.523438 42.136719 366.191406 41.339844 C 365.863281 40.542969 365.457031 39.785156 364.976562 39.070312 C 364.5 38.351562 363.953125 37.6875 363.34375 37.078125 C 362.734375 36.46875 362.070312 35.921875 361.355469 35.445312 C 360.640625 34.964844 359.882812 34.558594 359.085938 34.230469 C 358.289062 33.898438 357.46875 33.648438 356.625 33.480469 C 355.777344 33.3125 354.925781 33.226562 354.0625 33.226562 Z M 20.925781 33.226562 "/></g><path style=" stroke:none;fill-rule:nonzero;fill:#000000;fill-opacity:1;" d="M 354.085938 282.523438 L 20.914062 282.523438 C 20.226562 282.519531 19.542969 282.484375 18.863281 282.417969 C 18.179688 282.347656 17.503906 282.246094 16.832031 282.113281 C 16.160156 281.976562 15.496094 281.8125 14.839844 281.609375 C 14.183594 281.410156 13.539062 281.179688 12.90625 280.914062 C 12.273438 280.652344 11.65625 280.359375 11.050781 280.035156 C 10.445312 279.710938 9.859375 279.355469 9.289062 278.976562 C 8.71875 278.59375 8.171875 278.183594 7.640625 277.75 C 7.113281 277.3125 6.605469 276.851562 6.121094 276.367188 C 5.636719 275.878906 5.175781 275.371094 4.742188 274.839844 C 4.308594 274.308594 3.902344 273.757812 3.519531 273.1875 C 3.140625 272.617188 2.789062 272.03125 2.464844 271.425781 C 2.144531 270.820312 1.851562 270.199219 1.589844 269.566406 C 1.328125 268.929688 1.097656 268.285156 0.898438 267.628906 C 0.699219 266.972656 0.535156 266.304688 0.398438 265.632812 C 0.265625 264.960938 0.167969 264.28125 0.101562 263.597656 C 0.03125 262.914062 0 262.230469 0 261.542969 L 0 231.332031 C 0 230.8125 0.0976562 230.316406 0.296875 229.835938 C 0.496094 229.359375 0.777344 228.9375 1.140625 228.570312 C 1.507812 228.207031 1.929688 227.921875 2.40625 227.726562 C 2.882812 227.527344 3.382812 227.429688 3.898438 227.429688 L 371.101562 227.429688 C 371.617188 227.429688 372.117188 227.527344 372.59375 227.726562 C 373.070312 227.921875 373.492188 228.207031 373.859375 228.570312 C 374.222656 228.9375 374.503906 229.359375 374.703125 229.835938 C 374.902344 230.316406 375 230.8125 375 231.332031 L 375 261.542969 C 375 262.230469 374.96875 262.914062 374.898438 263.597656 C 374.832031 264.28125 374.734375 264.960938 374.601562 265.632812 C 374.464844 266.304688 374.300781 266.972656 374.101562 267.628906 C 373.902344 268.285156 373.671875 268.929688 373.410156 269.566406 C 373.148438 270.199219 372.855469 270.820312 372.535156 271.425781 C 372.210938 272.03125 371.859375 272.617188 371.480469 273.1875 C 371.097656 273.757812 370.691406 274.308594 370.257812 274.839844 C 369.824219 275.371094 369.363281 275.878906 368.878906 276.367188 C 368.394531 276.851562 367.886719 277.3125 367.359375 277.75 C 366.828125 278.183594 366.28125 278.59375 365.710938 278.976562 C 365.140625 279.355469 364.554688 279.710938 363.949219 280.035156 C 363.34375 280.359375 362.726562 280.652344 362.09375 280.914062 C 361.460938 281.179688 360.816406 281.410156 360.160156 281.609375 C 359.503906 281.8125 358.839844 281.976562 358.167969 282.113281 C 357.496094 282.246094 356.820312 282.347656 356.136719 282.417969 C 355.457031 282.484375 354.773438 282.519531 354.085938 282.523438 Z M 7.796875 235.234375 L 7.796875 261.542969 C 7.796875 262.410156 7.878906 263.261719 8.046875 264.109375 C 8.214844 264.957031 8.460938 265.78125 8.789062 266.578125 C 9.121094 267.375 9.523438 268.132812 10 268.851562 C 10.480469 269.570312 11.023438 270.238281 11.632812 270.847656 C 12.242188 271.460938 12.902344 272.003906 13.621094 272.488281 C 14.335938 272.96875 15.09375 273.375 15.890625 273.707031 C 16.683594 274.039062 17.507812 274.289062 18.351562 274.457031 C 19.195312 274.628906 20.050781 274.714844 20.914062 274.714844 L 354.085938 274.714844 C 354.949219 274.714844 355.800781 274.628906 356.644531 274.457031 C 357.492188 274.289062 358.3125 274.039062 359.105469 273.707031 C 359.902344 273.375 360.65625 272.96875 361.371094 272.488281 C 362.089844 272.007812 362.75 271.460938 363.359375 270.851562 C 363.96875 270.242188 364.511719 269.578125 364.988281 268.859375 C 365.46875 268.140625 365.871094 267.386719 366.199219 266.589844 C 366.53125 265.792969 366.777344 264.96875 366.949219 264.125 C 367.117188 263.277344 367.199219 262.421875 367.199219 261.558594 L 367.199219 235.234375 Z M 7.796875 235.234375 "/><path style=" stroke:none;fill-rule:nonzero;fill:#000000;fill-opacity:1;" d="M 229.097656 317.722656 L 145.902344 317.722656 C 145.386719 317.722656 144.890625 317.625 144.410156 317.425781 C 143.933594 317.226562 143.511719 316.945312 143.148438 316.582031 C 142.78125 316.214844 142.5 315.792969 142.300781 315.3125 C 142.105469 314.835938 142.003906 314.339844 142.003906 313.820312 L 142.003906 278.617188 C 142.003906 278.101562 142.105469 277.605469 142.300781 277.125 C 142.5 276.648438 142.78125 276.226562 143.148438 275.859375 C 143.511719 275.492188 143.933594 275.210938 144.410156 275.011719 C 144.890625 274.816406 145.386719 274.714844 145.902344 274.714844 L 229.097656 274.714844 C 229.613281 274.714844 230.109375 274.816406 230.589844 275.011719 C 231.066406 275.210938 231.488281 275.492188 231.851562 275.859375 C 232.21875 276.226562 232.5 276.648438 232.699219 277.125 C 232.894531 277.605469 232.996094 278.101562 232.996094 278.617188 L 232.996094 313.820312 C 232.996094 314.339844 232.894531 314.835938 232.699219 315.3125 C 232.5 315.792969 232.21875 316.214844 231.851562 316.582031 C 231.488281 316.945312 231.066406 317.226562 230.589844 317.425781 C 230.109375 317.625 229.613281 317.722656 229.097656 317.722656 Z M 149.800781 309.917969 L 225.199219 309.917969 L 225.199219 282.523438 L 149.800781 282.523438 Z M 149.800781 309.917969 "/><path style=" stroke:none;fill-rule:nonzero;fill:#000000;fill-opacity:1;" d="M 254.347656 349.957031 L 120.644531 349.957031 C 120.207031 349.953125 119.773438 349.925781 119.339844 349.871094 C 118.90625 349.816406 118.476562 349.734375 118.054688 349.625 C 117.632812 349.515625 117.21875 349.382812 116.8125 349.21875 C 116.40625 349.058594 116.011719 348.871094 115.632812 348.660156 C 115.25 348.449219 114.882812 348.214844 114.527344 347.957031 C 114.175781 347.699219 113.839844 347.421875 113.523438 347.121094 C 113.207031 346.820312 112.910156 346.5 112.632812 346.164062 C 112.355469 345.824219 112.101562 345.472656 111.867188 345.101562 C 111.636719 344.734375 111.425781 344.351562 111.242188 343.953125 C 111.058594 343.558594 110.898438 343.152344 110.765625 342.734375 C 110.632812 342.320312 110.527344 341.894531 110.445312 341.464844 C 110.367188 341.035156 110.3125 340.601562 110.289062 340.167969 C 110.261719 339.730469 110.265625 339.292969 110.296875 338.859375 C 110.324219 338.421875 110.382812 337.988281 110.464844 337.5625 C 110.550781 337.132812 110.660156 336.710938 110.800781 336.296875 C 110.9375 335.882812 111.097656 335.476562 111.289062 335.082031 L 120.644531 315.777344 C 121.066406 314.902344 121.601562 314.101562 122.25 313.378906 C 122.898438 312.652344 123.632812 312.03125 124.457031 311.515625 C 125.277344 310.996094 126.15625 310.601562 127.089844 310.332031 C 128.019531 310.0625 128.972656 309.925781 129.945312 309.921875 L 245.046875 309.921875 C 246.019531 309.925781 246.972656 310.0625 247.90625 310.332031 C 248.839844 310.601562 249.71875 310.996094 250.539062 311.515625 C 251.363281 312.03125 252.097656 312.652344 252.746094 313.375 C 253.394531 314.101562 253.933594 314.902344 254.355469 315.777344 L 263.679688 335.058594 C 263.871094 335.453125 264.035156 335.855469 264.171875 336.273438 C 264.308594 336.6875 264.421875 337.109375 264.507812 337.535156 C 264.59375 337.964844 264.648438 338.398438 264.679688 338.832031 C 264.710938 339.269531 264.714844 339.707031 264.6875 340.140625 C 264.664062 340.578125 264.613281 341.011719 264.535156 341.441406 C 264.453125 341.871094 264.347656 342.292969 264.214844 342.710938 C 264.082031 343.125 263.925781 343.535156 263.742188 343.929688 C 263.558594 344.324219 263.351562 344.710938 263.117188 345.078125 C 262.886719 345.449219 262.632812 345.804688 262.355469 346.140625 C 262.078125 346.480469 261.78125 346.800781 261.464844 347.097656 C 261.148438 347.398438 260.8125 347.679688 260.460938 347.9375 C 260.109375 348.195312 259.742188 348.429688 259.359375 348.640625 C 258.976562 348.855469 258.582031 349.042969 258.179688 349.203125 C 257.773438 349.367188 257.359375 349.5 256.9375 349.609375 C 256.515625 349.71875 256.085938 349.804688 255.652344 349.859375 C 255.21875 349.914062 254.785156 349.941406 254.347656 349.945312 Z M 129.953125 317.722656 C 129.464844 317.726562 129.015625 317.859375 128.605469 318.117188 C 128.195312 318.378906 127.882812 318.726562 127.671875 319.164062 L 118.316406 338.46875 C 118.222656 338.664062 118.15625 338.871094 118.117188 339.082031 C 118.078125 339.296875 118.0625 339.511719 118.078125 339.726562 C 118.089844 339.945312 118.128906 340.15625 118.195312 340.359375 C 118.261719 340.566406 118.355469 340.761719 118.46875 340.945312 C 118.585938 341.128906 118.722656 341.292969 118.878906 341.441406 C 119.035156 341.59375 119.210938 341.71875 119.398438 341.824219 C 119.589844 341.929688 119.789062 342.011719 119.996094 342.066406 C 120.207031 342.121094 120.417969 342.148438 120.636719 342.148438 L 254.339844 342.148438 C 254.558594 342.148438 254.773438 342.121094 254.980469 342.066406 C 255.191406 342.011719 255.390625 341.929688 255.582031 341.824219 C 255.769531 341.71875 255.945312 341.589844 256.101562 341.441406 C 256.257812 341.292969 256.394531 341.125 256.511719 340.941406 C 256.625 340.757812 256.71875 340.5625 256.78125 340.355469 C 256.847656 340.144531 256.886719 339.933594 256.902344 339.71875 C 256.914062 339.5 256.898438 339.285156 256.855469 339.070312 C 256.8125 338.859375 256.746094 338.652344 256.652344 338.457031 L 247.335938 319.175781 C 247.125 318.734375 246.8125 318.382812 246.398438 318.121094 C 245.988281 317.859375 245.535156 317.726562 245.046875 317.722656 Z M 129.953125 317.722656 "/><path style=" stroke:none;fill-rule:nonzero;fill:#000000;fill-opacity:1;" d="M 282.34375 259.792969 C 281.8125 259.773438 281.304688 259.660156 280.816406 259.445312 C 280.328125 259.230469 279.898438 258.933594 279.527344 258.554688 C 279.152344 258.175781 278.863281 257.742188 278.65625 257.25 C 278.449219 256.757812 278.339844 256.246094 278.332031 255.714844 C 278.339844 255.183594 278.449219 254.675781 278.65625 254.1875 C 278.867188 253.703125 279.15625 253.269531 279.53125 252.894531 C 279.90625 252.523438 280.335938 252.230469 280.820312 252.023438 C 281.308594 251.816406 281.816406 251.707031 282.34375 251.695312 C 282.878906 251.703125 283.386719 251.8125 283.878906 252.019531 C 284.371094 252.226562 284.804688 252.515625 285.183594 252.890625 C 285.5625 253.265625 285.855469 253.695312 286.070312 254.183594 C 286.28125 254.671875 286.398438 255.183594 286.414062 255.714844 C 286.398438 256.25 286.285156 256.761719 286.074219 257.253906 C 285.859375 257.746094 285.566406 258.183594 285.1875 258.5625 C 284.808594 258.941406 284.375 259.234375 283.882812 259.449219 C 283.394531 259.660156 282.878906 259.777344 282.34375 259.792969 Z M 282.34375 259.792969 "/><path style=" stroke:none;fill-rule:nonzero;fill:#000000;fill-opacity:1;" d="M 304.085938 259.792969 C 303.554688 259.773438 303.042969 259.660156 302.554688 259.445312 C 302.070312 259.230469 301.636719 258.9375 301.265625 258.554688 C 300.890625 258.175781 300.601562 257.742188 300.394531 257.25 C 300.1875 256.757812 300.078125 256.246094 300.070312 255.714844 C 300.082031 255.183594 300.191406 254.675781 300.398438 254.1875 C 300.605469 253.699219 300.894531 253.269531 301.269531 252.894531 C 301.644531 252.519531 302.074219 252.230469 302.5625 252.023438 C 303.046875 251.8125 303.554688 251.707031 304.085938 251.695312 C 304.617188 251.703125 305.128906 251.8125 305.617188 252.019531 C 306.109375 252.226562 306.542969 252.515625 306.921875 252.890625 C 307.300781 253.265625 307.597656 253.695312 307.808594 254.183594 C 308.023438 254.671875 308.136719 255.183594 308.15625 255.714844 C 308.140625 256.25 308.023438 256.761719 307.8125 257.253906 C 307.601562 257.746094 307.304688 258.183594 306.925781 258.5625 C 306.550781 258.941406 306.113281 259.234375 305.625 259.449219 C 305.132812 259.660156 304.621094 259.777344 304.085938 259.792969 Z M 304.085938 259.792969 "/><path style=" stroke:none;fill-rule:nonzero;fill:#000000;fill-opacity:1;" d="M 325.820312 259.792969 C 325.289062 259.773438 324.78125 259.660156 324.292969 259.445312 C 323.804688 259.230469 323.375 258.933594 323.003906 258.554688 C 322.628906 258.175781 322.339844 257.738281 322.132812 257.25 C 321.925781 256.757812 321.820312 256.246094 321.808594 255.714844 C 321.820312 255.183594 321.929688 254.675781 322.136719 254.1875 C 322.34375 253.703125 322.632812 253.269531 323.007812 252.898438 C 323.382812 252.523438 323.8125 252.230469 324.296875 252.023438 C 324.785156 251.816406 325.292969 251.707031 325.820312 251.695312 C 326.351562 251.703125 326.863281 251.8125 327.355469 252.019531 C 327.847656 252.226562 328.28125 252.515625 328.660156 252.890625 C 329.039062 253.265625 329.335938 253.695312 329.546875 254.183594 C 329.761719 254.671875 329.878906 255.183594 329.894531 255.714844 C 329.878906 256.25 329.761719 256.761719 329.550781 257.253906 C 329.339844 257.746094 329.042969 258.183594 328.664062 258.5625 C 328.285156 258.941406 327.851562 259.234375 327.359375 259.449219 C 326.871094 259.660156 326.355469 259.777344 325.820312 259.792969 Z M 325.820312 259.792969 "/><path style=" stroke:none;fill-rule:nonzero;fill:#000000;fill-opacity:1;" d="M 347.5625 259.792969 C 347.027344 259.773438 346.519531 259.660156 346.03125 259.445312 C 345.542969 259.230469 345.113281 258.9375 344.738281 258.554688 C 344.367188 258.175781 344.078125 257.742188 343.871094 257.25 C 343.664062 256.757812 343.554688 256.246094 343.546875 255.714844 C 343.554688 255.183594 343.664062 254.675781 343.871094 254.1875 C 344.078125 253.699219 344.371094 253.269531 344.746094 252.894531 C 345.121094 252.519531 345.550781 252.230469 346.035156 252.023438 C 346.523438 251.8125 347.03125 251.707031 347.5625 251.695312 C 348.09375 251.703125 348.605469 251.8125 349.09375 252.019531 C 349.585938 252.226562 350.019531 252.515625 350.398438 252.890625 C 350.777344 253.265625 351.074219 253.695312 351.285156 254.183594 C 351.5 254.671875 351.613281 255.183594 351.628906 255.714844 C 351.613281 256.25 351.5 256.761719 351.289062 257.253906 C 351.078125 257.746094 350.78125 258.183594 350.402344 258.5625 C 350.023438 258.941406 349.589844 259.234375 349.097656 259.449219 C 348.609375 259.660156 348.097656 259.777344 347.5625 259.792969 Z M 347.5625 259.792969 "/><path style=" stroke:none;fill-rule:nonzero;fill:#000000;fill-opacity:1;" d="M 106.5 195.175781 L 95.976562 195.175781 C 95.046875 195.175781 94.140625 195.027344 93.261719 194.726562 C 92.378906 194.425781 91.574219 193.992188 90.835938 193.425781 C 90.097656 192.855469 89.472656 192.183594 88.957031 191.410156 C 88.445312 190.632812 88.066406 189.796875 87.828125 188.898438 L 83.90625 174.117188 C 83.792969 173.867188 83.601562 173.703125 83.339844 173.621094 C 82.191406 173.191406 81 172.710938 79.828125 172.1875 C 79.597656 172.035156 79.363281 172.023438 79.117188 172.148438 L 65.863281 179.800781 C 65.0625 180.265625 64.210938 180.585938 63.304688 180.769531 C 62.398438 180.953125 61.484375 180.988281 60.566406 180.871094 C 59.652344 180.757812 58.777344 180.5 57.945312 180.09375 C 57.109375 179.691406 56.363281 179.167969 55.703125 178.519531 L 48.226562 171.003906 C 47.574219 170.351562 47.039062 169.609375 46.628906 168.78125 C 46.21875 167.953125 45.953125 167.078125 45.828125 166.160156 C 45.707031 165.242188 45.734375 164.332031 45.914062 163.421875 C 46.089844 162.515625 46.410156 161.660156 46.871094 160.855469 L 54.566406 147.589844 C 54.667969 147.355469 54.660156 147.125 54.539062 146.902344 C 54.003906 145.730469 53.484375 144.527344 53.039062 143.335938 C 52.984375 143.09375 52.847656 142.917969 52.625 142.808594 L 37.851562 138.871094 C 36.949219 138.632812 36.113281 138.253906 35.339844 137.738281 C 34.5625 137.226562 33.890625 136.597656 33.324219 135.859375 C 32.757812 135.121094 32.324219 134.3125 32.023438 133.429688 C 31.722656 132.546875 31.574219 131.640625 31.574219 130.710938 L 31.574219 120.171875 C 31.574219 119.242188 31.726562 118.335938 32.023438 117.453125 C 32.324219 116.574219 32.757812 115.761719 33.324219 115.027344 C 33.890625 114.289062 34.5625 113.660156 35.335938 113.144531 C 36.113281 112.628906 36.949219 112.253906 37.847656 112.015625 L 52.625 108.074219 C 52.859375 108.003906 53.003906 107.851562 53.070312 107.617188 C 53.523438 106.394531 54.042969 105.203125 54.566406 104.042969 C 54.691406 103.808594 54.703125 103.574219 54.605469 103.328125 L 46.960938 90.058594 C 46.5 89.25 46.179688 88.390625 46.003906 87.480469 C 45.824219 86.566406 45.796875 85.652344 45.917969 84.730469 C 46.039062 83.808594 46.304688 82.929688 46.710938 82.097656 C 47.121094 81.261719 47.652344 80.515625 48.304688 79.855469 L 55.742188 72.40625 C 56.394531 71.75 57.132812 71.214844 57.960938 70.804688 C 58.789062 70.390625 59.660156 70.121094 60.578125 70 C 61.492188 69.875 62.40625 69.898438 63.3125 70.078125 C 64.21875 70.253906 65.074219 70.570312 65.878906 71.03125 L 79.132812 78.75 C 79.378906 78.84375 79.617188 78.828125 79.847656 78.703125 C 80.933594 78.175781 82.152344 77.675781 83.359375 77.214844 C 83.628906 77.144531 83.8125 76.972656 83.898438 76.703125 L 87.796875 61.992188 C 88.035156 61.089844 88.410156 60.253906 88.921875 59.476562 C 89.4375 58.703125 90.0625 58.03125 90.800781 57.460938 C 91.535156 56.894531 92.34375 56.460938 93.226562 56.160156 C 94.105469 55.863281 95.011719 55.714844 95.941406 55.714844 L 106.464844 55.714844 C 107.394531 55.714844 108.296875 55.859375 109.175781 56.15625 C 110.054688 56.453125 110.863281 56.886719 111.601562 57.449219 C 112.335938 58.015625 112.964844 58.683594 113.480469 59.457031 C 113.996094 60.226562 114.371094 61.0625 114.613281 61.960938 L 118.570312 76.761719 C 118.613281 76.933594 118.710938 77.0625 118.863281 77.152344 C 120.226562 77.664062 121.542969 78.191406 122.820312 78.792969 C 122.988281 78.859375 123.148438 78.84375 123.296875 78.746094 L 136.550781 71.054688 C 137.359375 70.585938 138.21875 70.265625 139.132812 70.085938 C 140.042969 69.902344 140.960938 69.875 141.886719 70 C 142.808594 70.125 143.683594 70.394531 144.519531 70.8125 C 145.351562 71.226562 146.09375 71.769531 146.75 72.429688 L 154.179688 79.847656 C 154.839844 80.507812 155.375 81.257812 155.785156 82.09375 C 156.199219 82.933594 156.464844 83.816406 156.582031 84.746094 C 156.699219 85.671875 156.664062 86.59375 156.476562 87.507812 C 156.289062 88.425781 155.957031 89.285156 155.484375 90.089844 L 147.855469 103.3125 C 147.726562 103.554688 147.726562 103.800781 147.855469 104.042969 C 148.417969 105.207031 148.914062 106.394531 149.351562 107.609375 C 149.421875 107.820312 149.558594 107.96875 149.765625 108.054688 L 164.578125 112.027344 C 165.480469 112.261719 166.320312 112.636719 167.097656 113.148438 C 167.875 113.660156 168.550781 114.285156 169.121094 115.023438 C 169.691406 115.757812 170.125 116.570312 170.429688 117.449219 C 170.730469 118.332031 170.882812 119.238281 170.886719 120.171875 L 170.886719 130.710938 C 170.886719 131.640625 170.734375 132.546875 170.433594 133.425781 C 170.136719 134.308594 169.703125 135.117188 169.132812 135.855469 C 168.566406 136.59375 167.894531 137.21875 167.121094 137.734375 C 166.347656 138.25 165.507812 138.628906 164.609375 138.867188 L 149.824219 142.828125 C 149.597656 142.917969 149.445312 143.082031 149.371094 143.316406 C 148.917969 144.539062 148.417969 145.761719 147.84375 146.949219 C 147.761719 147.132812 147.761719 147.316406 147.84375 147.503906 L 155.535156 160.839844 C 155.769531 161.238281 155.972656 161.65625 156.136719 162.085938 C 156.304688 162.519531 156.433594 162.960938 156.523438 163.417969 C 156.617188 163.871094 156.671875 164.328125 156.6875 164.789062 C 156.703125 165.253906 156.679688 165.714844 156.621094 166.171875 C 156.558594 166.632812 156.460938 167.082031 156.324219 167.527344 C 156.1875 167.96875 156.019531 168.394531 155.8125 168.808594 C 155.605469 169.222656 155.363281 169.617188 155.089844 169.992188 C 154.820312 170.367188 154.515625 170.714844 154.1875 171.039062 L 146.746094 178.484375 C 146.089844 179.144531 145.34375 179.675781 144.507812 180.085938 C 143.675781 180.496094 142.796875 180.761719 141.875 180.878906 C 140.953125 180.996094 140.035156 180.960938 139.125 180.773438 C 138.214844 180.585938 137.359375 180.257812 136.558594 179.785156 L 123.347656 172.152344 C 123.199219 172.039062 123.039062 172.015625 122.863281 172.078125 C 121.519531 172.675781 120.234375 173.21875 118.945312 173.699219 C 118.757812 173.777344 118.644531 173.917969 118.605469 174.117188 L 114.644531 188.914062 C 114.40625 189.8125 114.027344 190.648438 113.511719 191.421875 C 112.996094 192.195312 112.371094 192.863281 111.636719 193.429688 C 110.898438 193.996094 110.089844 194.429688 109.210938 194.726562 C 108.332031 195.027344 107.429688 195.175781 106.5 195.175781 Z M 79.425781 164.273438 C 80.71875 164.273438 81.953125 164.550781 83.125 165.105469 C 84.054688 165.53125 85.074219 165.949219 86.117188 166.335938 C 87.402344 166.816406 88.511719 167.558594 89.445312 168.5625 C 90.378906 169.570312 91.035156 170.730469 91.417969 172.050781 L 95.359375 186.90625 C 95.398438 187.046875 95.472656 187.160156 95.585938 187.246094 C 95.699219 187.332031 95.828125 187.378906 95.972656 187.378906 L 106.496094 187.378906 C 106.636719 187.378906 106.765625 187.335938 106.878906 187.25 C 106.992188 187.164062 107.066406 187.050781 107.105469 186.914062 L 111.070312 172.113281 C 111.238281 171.460938 111.484375 170.839844 111.804688 170.246094 C 112.125 169.65625 112.511719 169.109375 112.964844 168.613281 C 113.417969 168.113281 113.921875 167.675781 114.480469 167.300781 C 115.039062 166.925781 115.632812 166.621094 116.265625 166.390625 C 117.359375 166 118.507812 165.488281 119.613281 165 C 120.21875 164.722656 120.847656 164.519531 121.503906 164.394531 C 122.15625 164.265625 122.816406 164.21875 123.480469 164.253906 C 124.148438 164.289062 124.800781 164.402344 125.4375 164.59375 C 126.074219 164.785156 126.679688 165.050781 127.253906 165.390625 L 140.476562 173.03125 C 140.597656 173.105469 140.726562 173.132812 140.863281 173.121094 C 141 173.105469 141.121094 173.050781 141.226562 172.957031 L 148.699219 165.480469 C 148.796875 165.386719 148.851562 165.269531 148.871094 165.136719 C 148.886719 165 148.859375 164.875 148.789062 164.757812 L 141.113281 151.449219 C 140.773438 150.859375 140.507812 150.238281 140.316406 149.585938 C 140.128906 148.929688 140.019531 148.265625 139.992188 147.585938 C 139.960938 146.90625 140.015625 146.234375 140.148438 145.566406 C 140.28125 144.898438 140.492188 144.257812 140.78125 143.640625 C 141.28125 142.605469 141.679688 141.601562 142.058594 140.601562 C 142.53125 139.304688 143.277344 138.191406 144.292969 137.253906 C 145.308594 136.320312 146.480469 135.671875 147.8125 135.308594 L 162.59375 131.347656 C 162.734375 131.3125 162.847656 131.238281 162.9375 131.125 C 163.027344 131.011719 163.074219 130.882812 163.074219 130.738281 L 163.074219 120.171875 C 163.074219 120.03125 163.03125 119.902344 162.945312 119.789062 C 162.859375 119.675781 162.746094 119.601562 162.609375 119.5625 L 147.796875 115.59375 C 146.472656 115.230469 145.300781 114.582031 144.289062 113.648438 C 143.277344 112.714844 142.535156 111.605469 142.0625 110.308594 C 141.699219 109.296875 141.285156 108.304688 140.816406 107.332031 C 140.519531 106.707031 140.300781 106.058594 140.164062 105.378906 C 140.023438 104.703125 139.96875 104.019531 139.996094 103.328125 C 140.019531 102.640625 140.128906 101.960938 140.320312 101.296875 C 140.511719 100.632812 140.777344 100 141.121094 99.402344 L 148.765625 86.152344 C 148.84375 86.03125 148.875 85.894531 148.859375 85.75 C 148.847656 85.605469 148.789062 85.480469 148.691406 85.371094 L 141.226562 77.9375 C 141.121094 77.832031 141 77.769531 140.855469 77.75 C 140.707031 77.730469 140.574219 77.757812 140.445312 77.832031 L 127.234375 85.503906 C 126.652344 85.847656 126.039062 86.113281 125.394531 86.304688 C 124.75 86.496094 124.089844 86.609375 123.417969 86.640625 C 122.742188 86.671875 122.078125 86.621094 121.414062 86.488281 C 120.753906 86.359375 120.117188 86.148438 119.507812 85.863281 C 118.4375 85.355469 117.320312 84.910156 116.207031 84.496094 C 114.945312 84.019531 113.863281 83.277344 112.960938 82.269531 C 112.0625 81.265625 111.4375 80.109375 111.097656 78.804688 L 107.128906 63.972656 C 107.089844 63.839844 107.011719 63.730469 106.898438 63.644531 C 106.785156 63.5625 106.65625 63.523438 106.515625 63.527344 L 95.992188 63.527344 C 95.851562 63.523438 95.722656 63.5625 95.609375 63.648438 C 95.496094 63.730469 95.421875 63.839844 95.386719 63.976562 L 91.453125 78.785156 C 91.273438 79.445312 91.015625 80.074219 90.679688 80.667969 C 90.347656 81.265625 89.949219 81.816406 89.484375 82.316406 C 89.019531 82.820312 88.5 83.257812 87.929688 83.632812 C 87.359375 84.011719 86.753906 84.3125 86.109375 84.542969 C 85.140625 84.910156 84.136719 85.324219 83.167969 85.78125 C 82.542969 86.082031 81.894531 86.300781 81.21875 86.441406 C 80.542969 86.585938 79.863281 86.644531 79.171875 86.621094 C 78.484375 86.59375 77.804688 86.488281 77.140625 86.300781 C 76.476562 86.113281 75.847656 85.851562 75.246094 85.507812 L 62.035156 77.816406 C 61.90625 77.75 61.769531 77.726562 61.625 77.746094 C 61.480469 77.769531 61.359375 77.832031 61.253906 77.933594 L 53.792969 85.367188 C 53.691406 85.476562 53.628906 85.609375 53.613281 85.757812 C 53.59375 85.90625 53.621094 86.046875 53.695312 86.179688 L 61.324219 99.40625 C 61.664062 99.996094 61.925781 100.621094 62.117188 101.277344 C 62.304688 101.933594 62.414062 102.601562 62.441406 103.28125 C 62.46875 103.960938 62.414062 104.636719 62.28125 105.304688 C 62.144531 105.972656 61.933594 106.617188 61.644531 107.234375 C 61.1875 108.246094 60.738281 109.28125 60.351562 110.308594 C 60.121094 110.949219 59.816406 111.554688 59.4375 112.121094 C 59.0625 112.691406 58.621094 113.203125 58.121094 113.664062 C 57.621094 114.125 57.070312 114.519531 56.476562 114.847656 C 55.878906 115.175781 55.25 115.429688 54.59375 115.605469 L 39.851562 119.5625 C 39.710938 119.597656 39.597656 119.671875 39.507812 119.785156 C 39.417969 119.898438 39.375 120.027344 39.371094 120.171875 L 39.371094 130.710938 C 39.371094 130.851562 39.414062 130.976562 39.5 131.089844 C 39.585938 131.203125 39.699219 131.28125 39.835938 131.316406 L 54.609375 135.25 C 55.269531 135.433594 55.898438 135.6875 56.496094 136.023438 C 57.089844 136.355469 57.640625 136.753906 58.140625 137.21875 C 58.644531 137.6875 59.082031 138.203125 59.457031 138.777344 C 59.832031 139.347656 60.132812 139.957031 60.363281 140.601562 C 60.753906 141.605469 61.1875 142.640625 61.640625 143.636719 C 62.226562 144.894531 62.492188 146.214844 62.433594 147.597656 C 62.378906 148.980469 62.007812 150.273438 61.324219 151.480469 L 53.644531 164.746094 C 53.503906 165.003906 53.53125 165.242188 53.726562 165.457031 L 61.199219 172.96875 C 61.429688 173.175781 61.675781 173.203125 61.945312 173.058594 L 75.199219 165.386719 C 76.507812 164.636719 77.914062 164.261719 79.425781 164.273438 Z M 79.425781 164.273438 "/><path style=" stroke:none;fill-rule:nonzero;fill:#000000;fill-opacity:1;" d="M 101.234375 154.265625 C 100.292969 154.265625 99.351562 154.21875 98.414062 154.125 C 97.472656 154.035156 96.542969 153.894531 95.617188 153.710938 C 94.691406 153.527344 93.777344 153.296875 92.875 153.023438 C 91.972656 152.75 91.085938 152.433594 90.214844 152.070312 C 89.34375 151.710938 88.492188 151.308594 87.664062 150.863281 C 86.832031 150.417969 86.023438 149.933594 85.238281 149.40625 C 84.453125 148.882812 83.699219 148.320312 82.96875 147.722656 C 82.242188 147.125 81.542969 146.492188 80.875 145.824219 C 80.207031 145.15625 79.578125 144.457031 78.976562 143.726562 C 78.378906 142.996094 77.820312 142.238281 77.296875 141.453125 C 76.769531 140.667969 76.285156 139.859375 75.84375 139.027344 C 75.398438 138.195312 74.996094 137.34375 74.632812 136.472656 C 74.273438 135.597656 73.957031 134.710938 73.683594 133.808594 C 73.410156 132.90625 73.179688 131.988281 72.996094 131.0625 C 72.8125 130.136719 72.675781 129.207031 72.582031 128.265625 C 72.488281 127.328125 72.441406 126.382812 72.441406 125.441406 C 72.441406 124.496094 72.488281 123.554688 72.582031 122.613281 C 72.675781 121.675781 72.8125 120.742188 72.996094 119.816406 C 73.179688 118.890625 73.410156 117.976562 73.683594 117.074219 C 73.957031 116.167969 74.273438 115.28125 74.632812 114.410156 C 74.996094 113.539062 75.398438 112.683594 75.84375 111.851562 C 76.285156 111.019531 76.769531 110.210938 77.296875 109.425781 C 77.820312 108.640625 78.378906 107.882812 78.976562 107.152344 C 79.578125 106.425781 80.207031 105.726562 80.875 105.058594 C 81.542969 104.390625 82.242188 103.757812 82.96875 103.160156 C 83.699219 102.558594 84.453125 101.996094 85.238281 101.472656 C 86.023438 100.949219 86.832031 100.464844 87.664062 100.019531 C 88.492188 99.574219 89.34375 99.171875 90.214844 98.808594 C 91.085938 98.449219 91.972656 98.128906 92.875 97.855469 C 93.777344 97.582031 94.691406 97.355469 95.617188 97.167969 C 96.542969 96.984375 97.472656 96.847656 98.414062 96.753906 C 99.351562 96.660156 100.292969 96.617188 101.234375 96.617188 C 102.175781 96.617188 103.117188 96.660156 104.054688 96.753906 C 104.996094 96.847656 105.925781 96.984375 106.851562 97.167969 C 107.777344 97.355469 108.691406 97.582031 109.59375 97.855469 C 110.496094 98.128906 111.382812 98.449219 112.253906 98.808594 C 113.125 99.171875 113.976562 99.574219 114.808594 100.019531 C 115.636719 100.464844 116.445312 100.949219 117.230469 101.472656 C 118.015625 101.996094 118.769531 102.558594 119.5 103.160156 C 120.230469 103.757812 120.925781 104.390625 121.59375 105.058594 C 122.261719 105.726562 122.890625 106.425781 123.492188 107.152344 C 124.089844 107.882812 124.648438 108.640625 125.171875 109.425781 C 125.699219 110.210938 126.183594 111.019531 126.625 111.851562 C 127.070312 112.683594 127.472656 113.539062 127.835938 114.410156 C 128.195312 115.28125 128.511719 116.167969 128.785156 117.074219 C 129.058594 117.976562 129.289062 118.890625 129.472656 119.816406 C 129.65625 120.742188 129.796875 121.675781 129.886719 122.613281 C 129.980469 123.554688 130.027344 124.496094 130.027344 125.441406 C 130.023438 126.382812 129.976562 127.324219 129.882812 128.265625 C 129.792969 129.203125 129.652344 130.136719 129.46875 131.0625 C 129.28125 131.988281 129.054688 132.902344 128.777344 133.804688 C 128.503906 134.707031 128.1875 135.59375 127.824219 136.464844 C 127.464844 137.339844 127.0625 138.191406 126.617188 139.023438 C 126.171875 139.855469 125.6875 140.664062 125.164062 141.449219 C 124.640625 142.230469 124.078125 142.988281 123.480469 143.71875 C 122.882812 144.449219 122.25 145.144531 121.585938 145.8125 C 120.917969 146.480469 120.21875 147.113281 119.492188 147.710938 C 118.761719 148.3125 118.007812 148.875 117.222656 149.398438 C 116.4375 149.921875 115.632812 150.40625 114.800781 150.851562 C 113.96875 151.296875 113.117188 151.699219 112.246094 152.0625 C 111.375 152.425781 110.492188 152.742188 109.589844 153.015625 C 108.6875 153.292969 107.773438 153.519531 106.847656 153.707031 C 105.925781 153.890625 104.992188 154.03125 104.054688 154.125 C 103.117188 154.21875 102.175781 154.265625 101.234375 154.265625 Z M 101.234375 104.425781 C 100.546875 104.425781 99.859375 104.457031 99.175781 104.527344 C 98.492188 104.59375 97.8125 104.695312 97.136719 104.828125 C 96.464844 104.964844 95.796875 105.128906 95.140625 105.328125 C 94.480469 105.53125 93.835938 105.761719 93.199219 106.023438 C 92.5625 106.289062 91.945312 106.582031 91.335938 106.90625 C 90.730469 107.230469 90.140625 107.585938 89.570312 107.96875 C 88.996094 108.351562 88.445312 108.757812 87.914062 109.195312 C 87.382812 109.632812 86.875 110.09375 86.386719 110.582031 C 85.902344 111.070312 85.441406 111.578125 85.003906 112.109375 C 84.566406 112.640625 84.160156 113.195312 83.777344 113.765625 C 83.394531 114.339844 83.042969 114.929688 82.71875 115.535156 C 82.394531 116.144531 82.101562 116.765625 81.835938 117.402344 C 81.574219 118.039062 81.34375 118.683594 81.144531 119.34375 C 80.941406 120.003906 80.777344 120.667969 80.640625 121.34375 C 80.507812 122.019531 80.40625 122.699219 80.339844 123.386719 C 80.273438 124.070312 80.238281 124.757812 80.238281 125.445312 C 80.238281 126.132812 80.273438 126.820312 80.339844 127.507812 C 80.40625 128.191406 80.507812 128.871094 80.644531 129.546875 C 80.777344 130.222656 80.945312 130.890625 81.144531 131.546875 C 81.34375 132.207031 81.574219 132.855469 81.839844 133.488281 C 82.101562 134.125 82.394531 134.746094 82.71875 135.355469 C 83.042969 135.960938 83.394531 136.550781 83.777344 137.125 C 84.160156 137.695312 84.570312 138.25 85.007812 138.78125 C 85.441406 139.3125 85.902344 139.820312 86.390625 140.308594 C 86.875 140.796875 87.386719 141.257812 87.917969 141.695312 C 88.449219 142.128906 89 142.539062 89.570312 142.921875 C 90.144531 143.304688 90.734375 143.660156 91.339844 143.984375 C 91.945312 144.308594 92.566406 144.601562 93.203125 144.863281 C 93.835938 145.128906 94.484375 145.359375 95.140625 145.558594 C 95.800781 145.757812 96.464844 145.925781 97.140625 146.0625 C 97.816406 146.195312 98.496094 146.296875 99.179688 146.363281 C 99.863281 146.429688 100.550781 146.464844 101.238281 146.464844 C 101.925781 146.464844 102.609375 146.429688 103.296875 146.363281 C 103.980469 146.292969 104.660156 146.195312 105.332031 146.058594 C 106.007812 145.925781 106.671875 145.757812 107.332031 145.558594 C 107.988281 145.359375 108.636719 145.125 109.273438 144.863281 C 109.90625 144.597656 110.527344 144.304688 111.132812 143.980469 C 111.742188 143.65625 112.328125 143.300781 112.902344 142.917969 C 113.472656 142.539062 114.023438 142.128906 114.554688 141.691406 C 115.085938 141.253906 115.597656 140.792969 116.082031 140.304688 C 116.570312 139.816406 117.03125 139.308594 117.464844 138.777344 C 117.902344 138.246094 118.3125 137.691406 118.691406 137.121094 C 119.074219 136.546875 119.429688 135.957031 119.753906 135.351562 C 120.078125 134.742188 120.371094 134.121094 120.632812 133.484375 C 120.894531 132.847656 121.128906 132.203125 121.328125 131.542969 C 121.527344 130.882812 121.691406 130.214844 121.828125 129.542969 C 121.960938 128.867188 122.0625 128.1875 122.128906 127.5 C 122.195312 126.816406 122.230469 126.128906 122.230469 125.441406 C 122.230469 124.753906 122.195312 124.066406 122.125 123.382812 C 122.058594 122.695312 121.957031 122.015625 121.820312 121.34375 C 121.6875 120.667969 121.519531 120 121.320312 119.34375 C 121.121094 118.683594 120.886719 118.035156 120.625 117.402344 C 120.359375 116.765625 120.066406 116.144531 119.742188 115.539062 C 119.417969 114.929688 119.066406 114.34375 118.683594 113.769531 C 118.300781 113.199219 117.890625 112.644531 117.457031 112.113281 C 117.019531 111.582031 116.558594 111.074219 116.070312 110.585938 C 115.585938 110.101562 115.078125 109.636719 114.546875 109.203125 C 114.015625 108.765625 113.464844 108.355469 112.890625 107.972656 C 112.320312 107.589844 111.730469 107.238281 111.125 106.914062 C 110.519531 106.589844 109.898438 106.292969 109.265625 106.03125 C 108.628906 105.765625 107.984375 105.535156 107.324219 105.335938 C 106.667969 105.132812 106.003906 104.96875 105.328125 104.832031 C 104.652344 104.699219 103.976562 104.597656 103.292969 104.527344 C 102.605469 104.460938 101.921875 104.425781 101.234375 104.425781 Z M 101.234375 104.425781 "/><path style=" stroke:none;fill-rule:nonzero;fill:#000000;fill-opacity:1;" d="M 332.082031 207.488281 L 312.125 207.488281 C 311.378906 207.488281 310.644531 207.414062 309.914062 207.269531 C 309.183594 207.125 308.476562 206.90625 307.789062 206.621094 C 307.101562 206.335938 306.449219 205.988281 305.832031 205.574219 C 305.210938 205.160156 304.640625 204.691406 304.113281 204.164062 C 303.585938 203.636719 303.117188 203.0625 302.703125 202.445312 C 302.292969 201.824219 301.941406 201.171875 301.65625 200.484375 C 301.371094 199.796875 301.15625 199.085938 301.011719 198.355469 C 300.867188 197.625 300.792969 196.890625 300.792969 196.144531 L 300.792969 122.089844 C 300.792969 121.34375 300.867188 120.605469 301.011719 119.875 C 301.15625 119.144531 301.371094 118.4375 301.65625 117.75 C 301.941406 117.0625 302.292969 116.40625 302.707031 115.789062 C 303.121094 115.167969 303.589844 114.597656 304.113281 114.070312 C 304.640625 113.542969 305.214844 113.074219 305.832031 112.660156 C 306.449219 112.246094 307.101562 111.894531 307.789062 111.609375 C 308.476562 111.324219 309.183594 111.109375 309.914062 110.964844 C 310.644531 110.816406 311.378906 110.746094 312.125 110.742188 L 332.082031 110.742188 C 332.824219 110.742188 333.5625 110.816406 334.292969 110.960938 C 335.023438 111.105469 335.730469 111.320312 336.417969 111.605469 C 337.109375 111.890625 337.761719 112.242188 338.378906 112.65625 C 339 113.070312 339.570312 113.539062 340.097656 114.066406 C 340.625 114.59375 341.09375 115.164062 341.507812 115.785156 C 341.921875 116.402344 342.273438 117.058594 342.558594 117.746094 C 342.84375 118.433594 343.058594 119.144531 343.207031 119.875 C 343.351562 120.605469 343.425781 121.34375 343.425781 122.089844 L 343.425781 196.144531 C 343.425781 196.890625 343.351562 197.628906 343.207031 198.359375 C 343.058594 199.089844 342.84375 199.796875 342.558594 200.488281 C 342.273438 201.175781 341.921875 201.828125 341.507812 202.449219 C 341.09375 203.066406 340.625 203.640625 340.097656 204.167969 C 339.570312 204.695312 339 205.164062 338.378906 205.578125 C 337.761719 205.992188 337.109375 206.339844 336.417969 206.625 C 335.730469 206.910156 335.023438 207.125 334.292969 207.273438 C 333.5625 207.417969 332.824219 207.488281 332.082031 207.488281 Z M 312.125 118.546875 C 311.65625 118.550781 311.203125 118.640625 310.769531 118.820312 C 310.335938 119 309.957031 119.253906 309.625 119.585938 C 309.292969 119.917969 309.039062 120.300781 308.859375 120.734375 C 308.679688 121.167969 308.589844 121.617188 308.585938 122.089844 L 308.585938 196.144531 C 308.589844 196.613281 308.679688 197.066406 308.859375 197.5 C 309.039062 197.933594 309.292969 198.316406 309.625 198.644531 C 309.957031 198.976562 310.335938 199.234375 310.769531 199.414062 C 311.203125 199.59375 311.65625 199.683594 312.125 199.683594 L 332.082031 199.683594 C 332.550781 199.683594 333.003906 199.597656 333.4375 199.417969 C 333.871094 199.238281 334.253906 198.984375 334.589844 198.652344 C 334.921875 198.320312 335.175781 197.933594 335.359375 197.5 C 335.539062 197.066406 335.628906 196.613281 335.628906 196.144531 L 335.628906 122.089844 C 335.628906 121.617188 335.539062 121.167969 335.359375 120.734375 C 335.179688 120.300781 334.921875 119.917969 334.59375 119.585938 C 334.261719 119.253906 333.878906 119 333.445312 118.820312 C 333.011719 118.640625 332.5625 118.550781 332.09375 118.546875 Z M 312.125 118.546875 "/><path style=" stroke:none;fill-rule:nonzero;fill:#000000;fill-opacity:1;" d="M 272.203125 207.488281 L 252.242188 207.488281 C 251.5 207.488281 250.761719 207.417969 250.03125 207.269531 C 249.304688 207.125 248.59375 206.910156 247.90625 206.625 C 247.21875 206.339844 246.566406 205.992188 245.949219 205.578125 C 245.328125 205.164062 244.757812 204.691406 244.230469 204.164062 C 243.703125 203.640625 243.234375 203.066406 242.820312 202.445312 C 242.40625 201.828125 242.054688 201.175781 241.769531 200.484375 C 241.484375 199.796875 241.269531 199.089844 241.125 198.359375 C 240.976562 197.628906 240.90625 196.890625 240.90625 196.144531 L 240.90625 68.722656 C 240.90625 67.980469 240.976562 67.242188 241.125 66.511719 C 241.269531 65.78125 241.484375 65.070312 241.769531 64.382812 C 242.054688 63.695312 242.402344 63.042969 242.816406 62.421875 C 243.230469 61.804688 243.699219 61.230469 244.226562 60.703125 C 244.753906 60.179688 245.324219 59.707031 245.941406 59.292969 C 246.5625 58.878906 247.214844 58.53125 247.902344 58.246094 C 248.589844 57.960938 249.296875 57.746094 250.027344 57.597656 C 250.753906 57.453125 251.492188 57.378906 252.234375 57.378906 L 272.195312 57.378906 C 272.9375 57.378906 273.675781 57.453125 274.40625 57.597656 C 275.132812 57.746094 275.84375 57.960938 276.53125 58.246094 C 277.214844 58.53125 277.871094 58.878906 278.488281 59.292969 C 279.105469 59.707031 279.679688 60.179688 280.203125 60.703125 C 280.730469 61.230469 281.199219 61.804688 281.613281 62.421875 C 282.027344 63.042969 282.375 63.695312 282.660156 64.382812 C 282.945312 65.070312 283.160156 65.78125 283.308594 66.511719 C 283.453125 67.242188 283.527344 67.980469 283.527344 68.722656 L 283.527344 196.144531 C 283.527344 196.890625 283.453125 197.625 283.308594 198.355469 C 283.160156 199.085938 282.945312 199.792969 282.660156 200.484375 C 282.375 201.171875 282.027344 201.824219 281.613281 202.441406 C 281.203125 203.0625 280.730469 203.632812 280.207031 204.160156 C 279.679688 204.6875 279.109375 205.15625 278.492188 205.570312 C 277.875 205.984375 277.222656 206.335938 276.535156 206.621094 C 275.847656 206.90625 275.140625 207.121094 274.410156 207.269531 C 273.683594 207.414062 272.945312 207.488281 272.203125 207.488281 Z M 252.242188 65.183594 C 251.773438 65.183594 251.324219 65.273438 250.890625 65.453125 C 250.457031 65.632812 250.078125 65.890625 249.746094 66.222656 C 249.414062 66.554688 249.15625 66.9375 248.980469 67.371094 C 248.800781 67.804688 248.707031 68.253906 248.707031 68.722656 L 248.707031 196.144531 C 248.707031 196.613281 248.800781 197.066406 248.980469 197.5 C 249.15625 197.933594 249.414062 198.316406 249.746094 198.644531 C 250.078125 198.976562 250.457031 199.234375 250.890625 199.414062 C 251.324219 199.59375 251.773438 199.683594 252.242188 199.683594 L 272.203125 199.683594 C 272.671875 199.683594 273.121094 199.59375 273.554688 199.414062 C 273.988281 199.234375 274.371094 198.976562 274.703125 198.644531 C 275.03125 198.316406 275.289062 197.933594 275.46875 197.5 C 275.648438 197.066406 275.738281 196.613281 275.738281 196.144531 L 275.738281 68.722656 C 275.738281 68.253906 275.648438 67.804688 275.46875 67.371094 C 275.289062 66.9375 275.03125 66.554688 274.703125 66.222656 C 274.371094 65.890625 273.988281 65.632812 273.554688 65.453125 C 273.121094 65.273438 272.671875 65.183594 272.203125 65.183594 Z M 252.242188 65.183594 "/><path style=" stroke:none;fill-rule:nonzero;fill:#000000;fill-opacity:1;" d="M 212.320312 207.488281 L 192.359375 207.488281 C 191.617188 207.488281 190.878906 207.414062 190.152344 207.269531 C 189.421875 207.125 188.714844 206.90625 188.027344 206.621094 C 187.339844 206.335938 186.6875 205.988281 186.066406 205.574219 C 185.449219 205.160156 184.878906 204.691406 184.351562 204.164062 C 183.824219 203.636719 183.355469 203.0625 182.941406 202.445312 C 182.527344 201.824219 182.179688 201.171875 181.894531 200.484375 C 181.609375 199.796875 181.394531 199.085938 181.25 198.355469 C 181.101562 197.625 181.03125 196.890625 181.027344 196.144531 L 181.027344 145.800781 C 181.03125 145.054688 181.105469 144.320312 181.25 143.589844 C 181.394531 142.859375 181.609375 142.148438 181.894531 141.460938 C 182.179688 140.773438 182.53125 140.121094 182.945312 139.5 C 183.355469 138.882812 183.828125 138.308594 184.351562 137.78125 C 184.878906 137.257812 185.449219 136.785156 186.070312 136.371094 C 186.6875 135.957031 187.339844 135.609375 188.027344 135.324219 C 188.714844 135.039062 189.421875 134.820312 190.152344 134.675781 C 190.878906 134.53125 191.617188 134.457031 192.359375 134.457031 L 212.320312 134.457031 C 213.0625 134.457031 213.800781 134.53125 214.527344 134.675781 C 215.257812 134.820312 215.964844 135.039062 216.652344 135.324219 C 217.339844 135.609375 217.992188 135.957031 218.613281 136.371094 C 219.230469 136.785156 219.800781 137.257812 220.328125 137.78125 C 220.855469 138.308594 221.324219 138.882812 221.738281 139.5 C 222.148438 140.121094 222.5 140.773438 222.785156 141.460938 C 223.070312 142.148438 223.285156 142.859375 223.429688 143.589844 C 223.578125 144.320312 223.648438 145.054688 223.652344 145.800781 L 223.652344 196.144531 C 223.652344 196.890625 223.578125 197.625 223.429688 198.355469 C 223.285156 199.085938 223.070312 199.796875 222.785156 200.484375 C 222.5 201.171875 222.152344 201.824219 221.738281 202.445312 C 221.324219 203.0625 220.855469 203.636719 220.328125 204.164062 C 219.804688 204.691406 219.230469 205.160156 218.613281 205.574219 C 217.992188 205.988281 217.339844 206.335938 216.652344 206.621094 C 215.96875 206.90625 215.257812 207.125 214.53125 207.269531 C 213.800781 207.414062 213.0625 207.488281 212.320312 207.488281 Z M 192.359375 142.265625 C 191.890625 142.265625 191.441406 142.355469 191.007812 142.535156 C 190.574219 142.714844 190.195312 142.972656 189.863281 143.300781 C 189.53125 143.632812 189.273438 144.015625 189.09375 144.449219 C 188.914062 144.882812 188.824219 145.335938 188.824219 145.804688 L 188.824219 196.148438 C 188.824219 196.617188 188.914062 197.070312 189.09375 197.503906 C 189.273438 197.9375 189.53125 198.320312 189.863281 198.648438 C 190.195312 198.980469 190.574219 199.238281 191.007812 199.417969 C 191.441406 199.597656 191.890625 199.6875 192.359375 199.6875 L 212.320312 199.6875 C 212.789062 199.6875 213.238281 199.597656 213.671875 199.417969 C 214.105469 199.238281 214.488281 198.980469 214.816406 198.648438 C 215.148438 198.320312 215.40625 197.9375 215.585938 197.503906 C 215.765625 197.070312 215.855469 196.617188 215.855469 196.148438 L 215.855469 145.804688 C 215.855469 145.335938 215.765625 144.882812 215.585938 144.449219 C 215.40625 144.015625 215.148438 143.632812 214.816406 143.300781 C 214.488281 142.972656 214.105469 142.714844 213.671875 142.535156 C 213.238281 142.355469 212.789062 142.265625 212.320312 142.265625 Z M 192.359375 142.265625 "/></g></svg>