<svg xmlns="http://www.w3.org/2000/svg" xmlns:xlink="http://www.w3.org/1999/xlink" width="500" zoomAndPan="magnify" viewBox="0 0 375 374.999991" height="500" preserveAspectRatio="xMidYMid meet" version="1.2"><defs><clipPath id="1953c8f400"><path d="M 222 223 L 298 223 L 298 298.757812 L 222 298.757812 Z M 222 223 "/></clipPath></defs><g id="7e61848522"><rect x="0" width="375" y="0" height="374.999991" style="fill:#ffffff;fill-opacity:1;stroke:none;"/><rect x="0" width="375" y="0" height="374.999991" style="fill:#ffffff;fill-opacity:1;stroke:none;"/><path style=" stroke:none;fill-rule:evenodd;fill:#545454;fill-opacity:1;" d="M 159.714844 230.4375 C 141.140625 230.4375 123.738281 223.03125 110.621094 209.65625 C 97.503906 196.539062 90.230469 179.136719 90.230469 160.5625 C 90.230469 142.121094 97.503906 124.585938 110.621094 111.46875 C 123.738281 98.351562 141.140625 91.078125 159.714844 91.078125 C 178.285156 91.078125 195.6875 98.351562 208.804688 111.46875 C 222.183594 124.585938 229.585938 141.992188 229.585938 160.5625 C 229.585938 179.136719 222.183594 196.539062 208.804688 209.65625 C 195.6875 223.03125 178.285156 230.4375 159.714844 230.4375 Z M 159.714844 97.183594 C 143.480469 97.183594 127.246094 103.417969 114.90625 115.757812 C 90.230469 140.433594 90.230469 180.695312 114.90625 205.371094 C 126.855469 217.578125 142.828125 224.332031 159.714844 224.332031 C 176.597656 224.332031 192.570312 217.578125 204.519531 205.371094 C 216.726562 193.292969 223.480469 177.445312 223.480469 160.5625 C 223.480469 143.679688 216.726562 127.703125 204.519531 115.757812 C 192.183594 103.417969 175.949219 97.183594 159.714844 97.183594 Z M 159.714844 97.183594 "/><path style=" stroke:none;fill-rule:evenodd;fill:#545454;fill-opacity:1;" d="M 236.078125 240.046875 C 235.300781 240.046875 234.519531 239.65625 234 239.136719 L 214.519531 219.65625 C 213.351562 218.488281 213.351562 216.539062 214.519531 215.371094 C 215.6875 214.203125 217.636719 214.203125 218.804688 215.371094 L 238.289062 234.851562 C 239.457031 236.019531 239.457031 237.96875 238.289062 239.136719 C 237.636719 239.65625 236.859375 240.046875 236.078125 240.046875 Z M 236.078125 240.046875 "/><g clip-rule="nonzero" clip-path="url(#1953c8f400)"><path style=" stroke:none;fill-rule:evenodd;fill:#545454;fill-opacity:1;" d="M 279.847656 298.75 C 275.171875 298.75 270.625 297.0625 266.988281 293.816406 C 266.859375 293.683594 266.859375 293.683594 266.859375 293.683594 L 223.09375 249.917969 C 221.921875 248.746094 221.921875 246.800781 223.09375 245.632812 L 244.78125 224.070312 C 245.949219 222.902344 247.898438 222.902344 249.066406 224.070312 L 292.835938 267.710938 C 292.835938 267.839844 292.835938 267.839844 292.835938 267.839844 C 299.589844 275.113281 299.589844 286.410156 292.835938 293.554688 C 292.835938 293.683594 292.835938 293.683594 292.707031 293.816406 C 289.070312 297.0625 284.523438 298.75 279.847656 298.75 Z M 271.144531 289.398438 C 276.082031 293.816406 283.613281 293.816406 288.550781 289.398438 C 292.964844 284.464844 292.964844 276.929688 288.550781 271.996094 L 246.988281 230.4375 L 229.585938 247.839844 Z M 271.144531 289.398438 "/></g><path style=" stroke:none;fill-rule:evenodd;fill:#545454;fill-opacity:1;" d="M 159.714844 243.941406 C 137.503906 243.941406 116.464844 235.242188 100.621094 219.65625 C 85.035156 203.8125 76.332031 182.769531 76.332031 160.5625 C 76.332031 138.355469 85.035156 117.3125 100.621094 101.46875 C 116.464844 85.882812 137.503906 77.183594 159.714844 77.183594 C 181.921875 77.183594 202.960938 85.882812 218.804688 101.46875 C 234.390625 117.3125 243.09375 138.355469 243.09375 160.5625 C 243.09375 182.769531 234.390625 203.8125 218.804688 219.65625 C 202.960938 235.242188 181.921875 243.941406 159.714844 243.941406 Z M 104.90625 105.753906 C 75.164062 136.015625 75.164062 185.109375 104.90625 215.371094 C 119.972656 230.175781 139.84375 237.707031 159.714844 237.707031 C 179.585938 237.707031 199.324219 230.175781 214.519531 215.371094 C 244.261719 185.109375 244.261719 136.015625 214.390625 105.753906 C 184.257812 76.015625 135.167969 76.015625 104.90625 105.753906 Z M 104.90625 105.753906 "/><path style=" stroke:none;fill-rule:evenodd;fill:#545454;fill-opacity:1;" d="M 196.726562 202.773438 L 122.699219 202.773438 C 121.011719 202.773438 119.710938 201.472656 119.710938 199.785156 C 119.710938 198.097656 121.011719 196.667969 122.699219 196.667969 L 196.726562 196.667969 C 198.414062 196.667969 199.714844 198.097656 199.714844 199.785156 C 199.714844 201.472656 198.414062 202.773438 196.726562 202.773438 Z M 196.726562 202.773438 "/><path style=" stroke:none;fill-rule:evenodd;fill:#545454;fill-opacity:1;" d="M 140.230469 191.34375 L 128.804688 191.34375 C 127.113281 191.34375 125.6875 189.914062 125.6875 188.226562 L 125.6875 150.820312 C 125.6875 149.132812 127.113281 147.835938 128.804688 147.835938 L 140.230469 147.835938 C 141.921875 147.835938 143.21875 149.132812 143.21875 150.820312 L 143.21875 188.226562 C 143.21875 189.914062 141.921875 191.34375 140.230469 191.34375 Z M 131.789062 185.238281 L 137.113281 185.238281 L 137.113281 153.808594 L 131.789062 153.808594 Z M 131.789062 185.238281 "/><path style=" stroke:none;fill-rule:evenodd;fill:#545454;fill-opacity:1;" d="M 165.296875 191.082031 L 153.867188 191.082031 C 152.179688 191.082031 150.882812 189.785156 150.882812 188.097656 L 150.882812 135.238281 C 150.882812 133.546875 152.179688 132.25 153.867188 132.25 L 165.296875 132.25 C 166.984375 132.25 168.285156 133.546875 168.285156 135.238281 L 168.285156 188.097656 C 168.285156 189.785156 166.984375 191.082031 165.296875 191.082031 Z M 156.855469 185.109375 L 162.3125 185.109375 L 162.3125 138.222656 L 156.855469 138.222656 Z M 156.855469 185.109375 "/><path style=" stroke:none;fill-rule:evenodd;fill:#545454;fill-opacity:1;" d="M 190.363281 191.214844 L 178.933594 191.214844 C 177.246094 191.214844 175.949219 189.914062 175.949219 188.226562 L 175.949219 121.859375 C 175.949219 120.171875 177.246094 118.742188 178.933594 118.742188 L 190.363281 118.742188 C 192.050781 118.742188 193.480469 120.171875 193.480469 121.859375 L 193.480469 188.226562 C 193.480469 189.914062 192.050781 191.214844 190.363281 191.214844 Z M 182.050781 185.238281 L 187.375 185.238281 L 187.375 124.847656 L 182.050781 124.847656 Z M 182.050781 185.238281 "/></g></svg>