<svg xmlns="http://www.w3.org/2000/svg" xmlns:xlink="http://www.w3.org/1999/xlink" width="500" zoomAndPan="magnify" viewBox="0 0 375 374.999991" height="500" preserveAspectRatio="xMidYMid meet" version="1.2"><defs><clipPath id="e9cfcfada9"><path d="M 2.777344 2.777344 L 372.527344 2.777344 L 372.527344 372.527344 L 2.777344 372.527344 Z M 2.777344 2.777344 "/></clipPath></defs><g id="8abc9af8d7"><rect x="0" width="375" y="0" height="374.999991" style="fill:#ffffff;fill-opacity:1;stroke:none;"/><rect x="0" width="375" y="0" height="374.999991" style="fill:#ffffff;fill-opacity:1;stroke:none;"/><g clip-rule="nonzero" clip-path="url(#e9cfcfada9)"><path style=" stroke:none;fill-rule:nonzero;fill:#040606;fill-opacity:1;" d="M 347.875 273.925781 L 212.300781 273.925781 C 205.511719 273.925781 199.976562 268.390625 199.976562 261.601562 L 199.976562 138.351562 L 360.203125 138.351562 L 360.203125 261.601562 C 360.203125 268.390625 354.664062 273.925781 347.875 273.925781 Z M 286.25 310.902344 L 89.050781 310.902344 L 89.050781 273.925781 C 91.53125 273.925781 94.011719 273.832031 96.464844 273.613281 C 100.484375 273.226562 103.929688 270.652344 105.492188 266.800781 L 109.511719 256.761719 C 114.351562 255.320312 118.996094 253.394531 123.425781 250.984375 L 133.417969 255.246094 C 137.171875 256.859375 141.480469 256.257812 144.585938 253.65625 C 146.488281 252.09375 148.292969 250.40625 150.050781 248.652344 C 151.808594 246.894531 153.492188 245.089844 155.082031 243.1875 C 157.65625 240.082031 158.257812 235.796875 156.644531 232.015625 L 152.386719 222.027344 C 154.792969 217.597656 156.71875 212.953125 158.164062 208.113281 L 168.199219 204.09375 C 168.226562 204.070312 168.226562 204.070312 168.226562 204.070312 C 172.050781 202.527344 174.628906 199.085938 175.011719 195.066406 C 175.230469 192.609375 175.328125 190.132812 175.328125 187.652344 C 175.328125 185.171875 175.230469 182.691406 175.011719 180.238281 C 174.628906 176.21875 172.050781 172.773438 168.199219 171.210938 L 158.164062 167.191406 C 156.71875 162.351562 154.792969 157.707031 152.386719 153.277344 L 156.644531 143.285156 C 158.257812 139.507812 157.65625 135.222656 155.058594 132.117188 C 153.492188 130.214844 151.808594 128.410156 150.050781 126.652344 C 148.292969 124.894531 146.488281 123.210938 144.585938 121.621094 C 141.480469 119.046875 137.171875 118.445312 133.417969 120.054688 L 123.425781 124.316406 C 118.996094 121.910156 114.351562 119.984375 109.511719 118.539062 L 105.46875 108.476562 C 103.929688 104.648438 100.484375 102.074219 96.464844 101.6875 C 94.011719 101.472656 91.53125 101.351562 89.050781 101.351562 L 89.050781 64.402344 L 286.25 64.402344 L 286.25 76.726562 L 212.300781 76.726562 C 198.699219 76.726562 187.652344 87.777344 187.652344 101.375 L 187.652344 261.601562 C 187.652344 275.203125 198.699219 286.25 212.300781 286.25 L 286.25 286.25 Z M 273.925781 360.203125 L 101.375 360.203125 C 94.589844 360.203125 89.050781 354.664062 89.050781 347.875 L 89.050781 323.226562 L 286.25 323.226562 L 286.25 347.875 C 286.25 354.664062 280.714844 360.203125 273.925781 360.203125 Z M 58.261719 238.828125 C 56.554688 237.792969 54.460938 237.625 52.628906 238.417969 L 40.667969 243.570312 C 39.316406 242.414062 38.019531 241.210938 36.765625 239.9375 C 35.515625 238.683594 34.285156 237.386719 33.132812 236.035156 L 38.28125 224.046875 C 39.054688 222.21875 38.910156 220.148438 37.875 218.441406 C 34.792969 213.335938 32.503906 207.824219 31.0625 202.046875 C 30.578125 200.121094 29.207031 198.554688 27.378906 197.808594 L 15.292969 192.972656 C 15.171875 191.214844 15.101562 189.433594 15.101562 187.652344 C 15.101562 185.871094 15.171875 184.089844 15.292969 182.332031 L 27.378906 177.492188 C 29.207031 176.746094 30.578125 175.183594 31.0625 173.257812 C 32.503906 167.480469 34.792969 161.964844 37.875 156.863281 C 38.910156 155.152344 39.054688 153.058594 38.28125 151.230469 L 33.132812 139.265625 C 34.285156 137.917969 35.515625 136.617188 36.765625 135.367188 C 38.019531 134.089844 39.316406 132.886719 40.667969 131.730469 L 52.652344 136.882812 C 54.460938 137.652344 56.554688 137.507812 58.261719 136.472656 C 63.367188 133.394531 68.878906 131.105469 74.65625 129.660156 C 76.582031 129.179688 78.148438 127.808594 78.894531 125.976562 L 83.730469 113.894531 C 87.246094 113.628906 90.832031 113.628906 94.371094 113.894531 L 99.210938 125.976562 C 99.957031 127.808594 101.519531 129.179688 103.445312 129.660156 C 109.222656 131.105469 114.738281 133.394531 119.839844 136.472656 C 121.550781 137.507812 123.621094 137.652344 125.449219 136.882812 L 137.4375 131.730469 C 138.785156 132.886719 140.085938 134.089844 141.335938 135.367188 C 142.613281 136.617188 143.816406 137.917969 144.972656 139.265625 L 139.820312 151.230469 C 139.050781 153.058594 139.195312 155.152344 140.230469 156.863281 C 143.308594 161.964844 145.597656 167.480469 147.042969 173.257812 C 147.523438 175.183594 148.894531 176.746094 150.726562 177.492188 L 162.808594 182.332031 C 162.929688 184.089844 163 185.871094 163 187.652344 C 163 189.433594 162.929688 191.214844 162.808594 192.972656 L 150.726562 197.808594 C 148.894531 198.554688 147.523438 200.121094 147.042969 202.046875 C 145.597656 207.824219 143.308594 213.335938 140.230469 218.441406 C 139.195312 220.148438 139.050781 222.21875 139.820312 224.046875 L 144.972656 236.035156 C 143.816406 237.386719 142.613281 238.683594 141.335938 239.9375 C 140.085938 241.210938 138.785156 242.414062 137.4375 243.570312 L 125.472656 238.417969 C 123.621094 237.625 121.550781 237.792969 119.839844 238.828125 C 114.738281 241.910156 109.222656 244.195312 103.445312 245.640625 C 101.519531 246.121094 99.957031 247.496094 99.210938 249.324219 L 94.371094 261.410156 C 90.855469 261.671875 87.269531 261.671875 83.730469 261.410156 L 78.894531 249.324219 C 78.148438 247.496094 76.582031 246.121094 74.65625 245.640625 C 68.878906 244.195312 63.367188 241.910156 58.261719 238.828125 Z M 101.375 15.101562 L 273.925781 15.101562 C 280.714844 15.101562 286.25 20.636719 286.25 27.425781 L 286.25 52.078125 L 89.050781 52.078125 L 89.050781 27.425781 C 89.050781 20.636719 94.589844 15.101562 101.375 15.101562 Z M 360.203125 101.375 L 360.203125 126.027344 L 199.976562 126.027344 L 199.976562 101.375 C 199.976562 94.589844 205.511719 89.050781 212.300781 89.050781 L 347.875 89.050781 C 354.664062 89.050781 360.203125 94.589844 360.203125 101.375 Z M 347.875 76.726562 L 298.578125 76.726562 L 298.578125 27.425781 C 298.578125 13.824219 287.527344 2.777344 273.925781 2.777344 L 101.375 2.777344 C 87.777344 2.777344 76.726562 13.824219 76.726562 27.425781 L 76.726562 103.496094 C 74.945312 104.699219 73.476562 106.382812 72.609375 108.5 L 68.589844 118.539062 C 63.75 119.984375 59.082031 121.910156 54.675781 124.316406 L 44.6875 120.054688 C 40.90625 118.445312 36.621094 119.046875 33.515625 121.644531 C 31.613281 123.210938 29.808594 124.894531 28.050781 126.652344 C 26.296875 128.410156 24.609375 130.214844 23.046875 132.117188 C 20.445312 135.222656 19.84375 139.507812 21.457031 143.285156 L 25.742188 153.277344 C 23.308594 157.707031 21.382812 162.351562 19.941406 167.191406 L 9.878906 171.234375 C 6.050781 172.773438 3.472656 176.21875 3.113281 180.238281 C 2.871094 182.691406 2.777344 185.171875 2.777344 187.652344 C 2.777344 190.132812 2.871094 192.609375 3.113281 195.066406 C 3.472656 199.085938 6.050781 202.527344 9.902344 204.09375 L 19.941406 208.113281 C 21.382812 212.953125 23.308594 217.597656 25.742188 222.027344 L 21.457031 232.015625 C 19.84375 235.796875 20.445312 240.082031 23.046875 243.1875 C 24.609375 245.089844 26.296875 246.894531 28.050781 248.652344 C 29.808594 250.40625 31.613281 252.09375 33.515625 253.683594 C 36.621094 256.257812 40.90625 256.859375 44.6875 255.246094 L 54.675781 250.984375 C 59.082031 253.394531 63.75 255.320312 68.589844 256.761719 L 72.632812 266.824219 C 73.476562 268.945312 74.945312 270.605469 76.726562 271.808594 L 76.726562 347.875 C 76.726562 361.476562 87.777344 372.527344 101.375 372.527344 L 273.925781 372.527344 C 287.527344 372.527344 298.578125 361.476562 298.578125 347.875 L 298.578125 286.25 L 347.875 286.25 C 361.476562 286.25 372.527344 275.203125 372.527344 261.601562 L 372.527344 101.375 C 372.527344 87.777344 361.476562 76.726562 347.875 76.726562 "/></g><path style=" stroke:none;fill-rule:nonzero;fill:#040606;fill-opacity:1;" d="M 52.078125 187.652344 C 52.078125 171.59375 62.402344 157.921875 76.726562 152.820312 L 76.726562 166.417969 C 69.382812 170.703125 64.402344 178.578125 64.402344 187.652344 C 64.402344 196.726562 69.382812 204.597656 76.726562 208.882812 L 76.726562 222.484375 C 62.402344 217.378906 52.078125 203.707031 52.078125 187.652344 Z M 89.050781 175.328125 C 95.839844 175.328125 101.375 180.863281 101.375 187.652344 C 101.375 194.441406 95.839844 199.976562 89.050781 199.976562 C 82.261719 199.976562 76.726562 194.441406 76.726562 187.652344 C 76.726562 180.863281 82.261719 175.328125 89.050781 175.328125 Z M 126.027344 187.652344 C 126.027344 208.039062 109.441406 224.625 89.050781 224.625 L 89.050781 212.300781 C 102.652344 212.300781 113.703125 201.253906 113.703125 187.652344 C 113.703125 174.050781 102.652344 163 89.050781 163 L 89.050781 150.675781 C 109.441406 150.675781 126.027344 167.261719 126.027344 187.652344 Z M 138.351562 187.652344 C 138.351562 160.472656 116.230469 138.351562 89.050781 138.351562 C 61.875 138.351562 39.75 160.472656 39.75 187.652344 C 39.75 214.828125 61.875 236.953125 89.050781 236.953125 C 116.230469 236.953125 138.351562 214.828125 138.351562 187.652344 "/><path style=" stroke:none;fill-rule:nonzero;fill:#040606;fill-opacity:1;" d="M 224.625 187.652344 L 224.625 163 L 335.550781 163 L 335.574219 187.652344 Z M 335.550781 150.675781 L 224.625 150.675781 C 217.839844 150.675781 212.300781 156.214844 212.300781 163 L 212.300781 187.652344 C 212.300781 194.441406 217.839844 199.976562 224.625 199.976562 L 335.550781 199.976562 C 342.339844 199.976562 347.875 194.441406 347.875 187.652344 L 347.875 163 C 347.875 156.214844 342.339844 150.675781 335.550781 150.675781 "/><path style=" stroke:none;fill-rule:nonzero;fill:#040606;fill-opacity:1;" d="M 163 39.75 L 169.164062 39.75 C 172.558594 39.75 175.328125 36.984375 175.328125 33.589844 C 175.328125 30.195312 172.558594 27.425781 169.164062 27.425781 L 163 27.425781 C 159.605469 27.425781 156.839844 30.195312 156.839844 33.589844 C 156.839844 36.984375 159.605469 39.75 163 39.75 "/><path style=" stroke:none;fill-rule:nonzero;fill:#040606;fill-opacity:1;" d="M 193.8125 39.75 L 212.300781 39.75 C 215.695312 39.75 218.464844 36.984375 218.464844 33.589844 C 218.464844 30.195312 215.695312 27.425781 212.300781 27.425781 L 193.8125 27.425781 C 190.417969 27.425781 187.652344 30.195312 187.652344 33.589844 C 187.652344 36.984375 190.417969 39.75 193.8125 39.75 "/><path style=" stroke:none;fill-rule:nonzero;fill:#040606;fill-opacity:1;" d="M 199.976562 335.550781 L 175.328125 335.550781 C 171.933594 335.550781 169.164062 338.320312 169.164062 341.714844 C 169.164062 345.109375 171.933594 347.875 175.328125 347.875 L 199.976562 347.875 C 203.371094 347.875 206.140625 345.109375 206.140625 341.714844 C 206.140625 338.320312 203.371094 335.550781 199.976562 335.550781 "/><path style=" stroke:none;fill-rule:nonzero;fill:#040606;fill-opacity:1;" d="M 224.625 101.375 L 218.464844 101.375 C 215.070312 101.375 212.300781 104.144531 212.300781 107.539062 C 212.300781 110.933594 215.070312 113.703125 218.464844 113.703125 L 224.625 113.703125 C 228.019531 113.703125 230.789062 110.933594 230.789062 107.539062 C 230.789062 104.144531 228.019531 101.375 224.625 101.375 "/><path style=" stroke:none;fill-rule:nonzero;fill:#040606;fill-opacity:1;" d="M 255.4375 101.375 L 249.277344 101.375 C 245.882812 101.375 243.113281 104.144531 243.113281 107.539062 C 243.113281 110.933594 245.882812 113.703125 249.277344 113.703125 L 255.4375 113.703125 C 258.832031 113.703125 261.601562 110.933594 261.601562 107.539062 C 261.601562 104.144531 258.832031 101.375 255.4375 101.375 "/><path style=" stroke:none;fill-rule:nonzero;fill:#040606;fill-opacity:1;" d="M 310.902344 113.703125 L 341.714844 113.703125 C 345.109375 113.703125 347.875 110.933594 347.875 107.539062 C 347.875 104.144531 345.109375 101.375 341.714844 101.375 L 310.902344 101.375 C 307.507812 101.375 304.738281 104.144531 304.738281 107.539062 C 304.738281 110.933594 307.507812 113.703125 310.902344 113.703125 "/><path style=" stroke:none;fill-rule:nonzero;fill:#040606;fill-opacity:1;" d="M 286.25 212.300781 L 230.789062 212.300781 C 227.394531 212.300781 224.625 215.070312 224.625 218.464844 C 224.625 221.859375 227.394531 224.625 230.789062 224.625 L 286.25 224.625 C 289.644531 224.625 292.414062 221.859375 292.414062 218.464844 C 292.414062 215.070312 289.644531 212.300781 286.25 212.300781 "/><path style=" stroke:none;fill-rule:nonzero;fill:#040606;fill-opacity:1;" d="M 273.925781 236.953125 L 230.789062 236.953125 C 227.394531 236.953125 224.625 239.71875 224.625 243.113281 C 224.625 246.507812 227.394531 249.277344 230.789062 249.277344 L 273.925781 249.277344 C 277.320312 249.277344 280.089844 246.507812 280.089844 243.113281 C 280.089844 239.71875 277.320312 236.953125 273.925781 236.953125 "/><path style=" stroke:none;fill-rule:nonzero;fill:#040606;fill-opacity:1;" d="M 329.390625 212.300781 L 310.902344 212.300781 C 307.507812 212.300781 304.738281 215.070312 304.738281 218.464844 C 304.738281 221.859375 307.507812 224.625 310.902344 224.625 L 329.390625 224.625 C 332.78125 224.625 335.550781 221.859375 335.550781 218.464844 C 335.550781 215.070312 332.78125 212.300781 329.390625 212.300781 "/><path style=" stroke:none;fill-rule:nonzero;fill:#040606;fill-opacity:1;" d="M 317.0625 236.953125 L 298.578125 236.953125 C 295.183594 236.953125 292.414062 239.71875 292.414062 243.113281 C 292.414062 246.507812 295.183594 249.277344 298.578125 249.277344 L 317.0625 249.277344 C 320.457031 249.277344 323.226562 246.507812 323.226562 243.113281 C 323.226562 239.71875 320.457031 236.953125 317.0625 236.953125 "/></g></svg>