<svg xmlns="http://www.w3.org/2000/svg" xmlns:xlink="http://www.w3.org/1999/xlink" width="500" zoomAndPan="magnify" viewBox="0 0 375 374.999991" height="500" preserveAspectRatio="xMidYMid meet" version="1.2"><defs><clipPath id="195e0530ad"><path d="M 74.929688 74.929688 L 299.929688 74.929688 L 299.929688 299.929688 L 74.929688 299.929688 Z M 74.929688 74.929688 "/></clipPath></defs><g id="5990b7c7c9"><rect x="0" width="375" y="0" height="374.999991" style="fill:#ffffff;fill-opacity:1;stroke:none;"/><rect x="0" width="375" y="0" height="374.999991" style="fill:#ffffff;fill-opacity:1;stroke:none;"/><g clip-rule="nonzero" clip-path="url(#195e0530ad)"><path style=" stroke:none;fill-rule:nonzero;fill:#545454;fill-opacity:1;" d="M 284.929688 239.929688 L 202.429688 239.929688 C 198.300781 239.929688 194.929688 236.5625 194.929688 232.429688 L 194.929688 157.429688 L 292.429688 157.429688 L 292.429688 232.429688 C 292.429688 236.5625 289.0625 239.929688 284.929688 239.929688 Z M 247.429688 262.429688 L 127.429688 262.429688 L 127.429688 239.929688 C 128.941406 239.929688 130.449219 239.871094 131.941406 239.742188 C 134.390625 239.507812 136.484375 237.9375 137.4375 235.59375 L 139.882812 229.488281 C 142.828125 228.609375 145.652344 227.4375 148.347656 225.972656 L 154.429688 228.5625 C 156.714844 229.546875 159.335938 229.179688 161.226562 227.597656 C 162.382812 226.644531 163.480469 225.621094 164.550781 224.550781 C 165.621094 223.480469 166.644531 222.382812 167.613281 221.226562 C 169.179688 219.335938 169.546875 216.726562 168.5625 214.429688 L 165.972656 208.347656 C 167.4375 205.652344 168.609375 202.828125 169.488281 199.882812 L 175.59375 197.4375 C 175.609375 197.421875 175.609375 197.421875 175.609375 197.421875 C 177.9375 196.484375 179.507812 194.390625 179.742188 191.941406 C 179.871094 190.449219 179.929688 188.941406 179.929688 187.429688 C 179.929688 185.921875 179.871094 184.414062 179.742188 182.917969 C 179.507812 180.472656 177.9375 178.378906 175.59375 177.425781 L 169.488281 174.980469 C 168.609375 172.035156 167.4375 169.207031 165.972656 166.511719 L 168.5625 160.433594 C 169.546875 158.132812 169.179688 155.527344 167.597656 153.636719 C 166.644531 152.480469 165.621094 151.382812 164.550781 150.3125 C 163.480469 149.242188 162.382812 148.21875 161.226562 147.25 C 159.335938 145.683594 156.714844 145.316406 154.429688 146.296875 L 148.347656 148.890625 C 145.652344 147.425781 142.828125 146.253906 139.882812 145.375 L 137.421875 139.253906 C 136.484375 136.921875 134.390625 135.355469 131.941406 135.121094 C 130.449219 134.988281 128.941406 134.917969 127.429688 134.917969 L 127.429688 112.429688 L 247.429688 112.429688 L 247.429688 119.929688 L 202.429688 119.929688 C 194.15625 119.929688 187.429688 126.65625 187.429688 134.929688 L 187.429688 232.429688 C 187.429688 240.707031 194.15625 247.429688 202.429688 247.429688 L 247.429688 247.429688 Z M 239.929688 292.429688 L 134.929688 292.429688 C 130.800781 292.429688 127.429688 289.0625 127.429688 284.929688 L 127.429688 269.929688 L 247.429688 269.929688 L 247.429688 284.929688 C 247.429688 289.0625 244.0625 292.429688 239.929688 292.429688 Z M 108.695312 218.574219 C 107.65625 217.945312 106.382812 217.839844 105.269531 218.324219 L 97.988281 221.460938 C 97.167969 220.757812 96.375 220.023438 95.613281 219.246094 C 94.851562 218.484375 94.105469 217.695312 93.402344 216.875 L 96.539062 209.578125 C 97.007812 208.464844 96.917969 207.207031 96.289062 206.167969 C 94.414062 203.0625 93.023438 199.707031 92.144531 196.191406 C 91.851562 195.019531 91.015625 194.066406 89.902344 193.613281 L 82.546875 190.667969 C 82.476562 189.597656 82.429688 188.515625 82.429688 187.429688 C 82.429688 186.347656 82.476562 185.261719 82.546875 184.195312 L 89.902344 181.25 C 91.015625 180.796875 91.851562 179.84375 92.144531 178.671875 C 93.023438 175.15625 94.414062 171.800781 96.289062 168.695312 C 96.917969 167.65625 97.007812 166.382812 96.539062 165.269531 L 93.402344 157.988281 C 94.105469 157.167969 94.851562 156.375 95.613281 155.613281 C 96.375 154.839844 97.167969 154.105469 97.988281 153.402344 L 105.28125 156.539062 C 106.382812 157.007812 107.65625 156.917969 108.695312 156.289062 C 111.800781 154.414062 115.15625 153.023438 118.671875 152.144531 C 119.84375 151.851562 120.796875 151.015625 121.25 149.902344 L 124.195312 142.546875 C 126.332031 142.386719 128.515625 142.386719 130.667969 142.546875 L 133.613281 149.902344 C 134.066406 151.015625 135.019531 151.851562 136.191406 152.144531 C 139.707031 153.023438 143.0625 154.414062 146.167969 156.289062 C 147.207031 156.917969 148.464844 157.007812 149.578125 156.539062 L 156.875 153.402344 C 157.695312 154.105469 158.484375 154.839844 159.246094 155.613281 C 160.023438 156.375 160.757812 157.167969 161.460938 157.988281 L 158.324219 165.269531 C 157.855469 166.382812 157.945312 167.65625 158.574219 168.695312 C 160.449219 171.800781 161.839844 175.15625 162.71875 178.671875 C 163.011719 179.84375 163.847656 180.796875 164.960938 181.25 L 172.3125 184.195312 C 172.386719 185.261719 172.429688 186.347656 172.429688 187.429688 C 172.429688 188.515625 172.386719 189.597656 172.3125 190.667969 L 164.960938 193.613281 C 163.847656 194.066406 163.011719 195.019531 162.71875 196.191406 C 161.839844 199.707031 160.449219 203.0625 158.574219 206.167969 C 157.945312 207.207031 157.855469 208.464844 158.324219 209.578125 L 161.460938 216.875 C 160.757812 217.695312 160.023438 218.484375 159.246094 219.246094 C 158.484375 220.023438 157.695312 220.757812 156.875 221.460938 L 149.59375 218.324219 C 148.464844 217.839844 147.207031 217.945312 146.167969 218.574219 C 143.0625 220.449219 139.707031 221.839844 136.191406 222.71875 C 135.019531 223.011719 134.066406 223.847656 133.613281 224.960938 L 130.667969 232.3125 C 128.53125 232.476562 126.347656 232.476562 124.195312 232.3125 L 121.25 224.960938 C 120.796875 223.847656 119.84375 223.011719 118.671875 222.71875 C 115.15625 221.839844 111.800781 220.449219 108.695312 218.574219 Z M 134.929688 82.429688 L 239.929688 82.429688 C 244.0625 82.429688 247.429688 85.800781 247.429688 89.929688 L 247.429688 104.929688 L 127.429688 104.929688 L 127.429688 89.929688 C 127.429688 85.800781 130.800781 82.429688 134.929688 82.429688 Z M 292.429688 134.929688 L 292.429688 149.929688 L 194.929688 149.929688 L 194.929688 134.929688 C 194.929688 130.800781 198.300781 127.429688 202.429688 127.429688 L 284.929688 127.429688 C 289.0625 127.429688 292.429688 130.800781 292.429688 134.929688 Z M 284.929688 119.929688 L 254.929688 119.929688 L 254.929688 89.929688 C 254.929688 81.65625 248.207031 74.929688 239.929688 74.929688 L 134.929688 74.929688 C 126.65625 74.929688 119.929688 81.65625 119.929688 89.929688 L 119.929688 136.21875 C 118.847656 136.953125 117.953125 137.976562 117.425781 139.265625 L 114.980469 145.375 C 112.035156 146.253906 109.195312 147.425781 106.511719 148.890625 L 100.433594 146.296875 C 98.132812 145.316406 95.527344 145.683594 93.636719 147.265625 C 92.480469 148.21875 91.382812 149.242188 90.3125 150.3125 C 89.242188 151.382812 88.21875 152.480469 87.265625 153.636719 C 85.683594 155.527344 85.316406 158.132812 86.296875 160.433594 L 88.90625 166.511719 C 87.425781 169.207031 86.253906 172.035156 85.375 174.980469 L 79.253906 177.441406 C 76.921875 178.378906 75.355469 180.472656 75.136719 182.917969 C 74.988281 184.414062 74.929688 185.921875 74.929688 187.429688 C 74.929688 188.941406 74.988281 190.449219 75.136719 191.941406 C 75.355469 194.390625 76.921875 196.484375 79.265625 197.4375 L 85.375 199.882812 C 86.253906 202.828125 87.425781 205.652344 88.90625 208.347656 L 86.296875 214.429688 C 85.316406 216.726562 85.683594 219.335938 87.265625 221.226562 C 88.21875 222.382812 89.242188 223.480469 90.3125 224.550781 C 91.382812 225.621094 92.480469 226.644531 93.636719 227.613281 C 95.527344 229.179688 98.132812 229.546875 100.433594 228.5625 L 106.511719 225.972656 C 109.195312 227.4375 112.035156 228.609375 114.980469 229.488281 L 117.441406 235.609375 C 117.953125 236.898438 118.847656 237.910156 119.929688 238.640625 L 119.929688 284.929688 C 119.929688 293.207031 126.65625 299.929688 134.929688 299.929688 L 239.929688 299.929688 C 248.207031 299.929688 254.929688 293.207031 254.929688 284.929688 L 254.929688 247.429688 L 284.929688 247.429688 C 293.207031 247.429688 299.929688 240.707031 299.929688 232.429688 L 299.929688 134.929688 C 299.929688 126.65625 293.207031 119.929688 284.929688 119.929688 "/></g><path style=" stroke:none;fill-rule:nonzero;fill:#545454;fill-opacity:1;" d="M 104.929688 187.429688 C 104.929688 177.660156 111.214844 169.339844 119.929688 166.234375 L 119.929688 174.511719 C 115.464844 177.117188 112.429688 181.910156 112.429688 187.429688 C 112.429688 192.953125 115.464844 197.742188 119.929688 200.351562 L 119.929688 208.628906 C 111.214844 205.523438 104.929688 197.203125 104.929688 187.429688 Z M 127.429688 179.929688 C 131.5625 179.929688 134.929688 183.300781 134.929688 187.429688 C 134.929688 191.5625 131.5625 194.929688 127.429688 194.929688 C 123.300781 194.929688 119.929688 191.5625 119.929688 187.429688 C 119.929688 183.300781 123.300781 179.929688 127.429688 179.929688 Z M 149.929688 187.429688 C 149.929688 199.839844 139.839844 209.929688 127.429688 209.929688 L 127.429688 202.429688 C 135.707031 202.429688 142.429688 195.707031 142.429688 187.429688 C 142.429688 179.15625 135.707031 172.429688 127.429688 172.429688 L 127.429688 164.929688 C 139.839844 164.929688 149.929688 175.023438 149.929688 187.429688 Z M 157.429688 187.429688 C 157.429688 170.894531 143.96875 157.429688 127.429688 157.429688 C 110.894531 157.429688 97.429688 170.894531 97.429688 187.429688 C 97.429688 203.96875 110.894531 217.429688 127.429688 217.429688 C 143.96875 217.429688 157.429688 203.96875 157.429688 187.429688 "/><path style=" stroke:none;fill-rule:nonzero;fill:#545454;fill-opacity:1;" d="M 209.929688 187.429688 L 209.929688 172.429688 L 277.429688 172.429688 L 277.445312 187.429688 Z M 277.429688 164.929688 L 209.929688 164.929688 C 205.800781 164.929688 202.429688 168.300781 202.429688 172.429688 L 202.429688 187.429688 C 202.429688 191.5625 205.800781 194.929688 209.929688 194.929688 L 277.429688 194.929688 C 281.5625 194.929688 284.929688 191.5625 284.929688 187.429688 L 284.929688 172.429688 C 284.929688 168.300781 281.5625 164.929688 277.429688 164.929688 "/><path style=" stroke:none;fill-rule:nonzero;fill:#545454;fill-opacity:1;" d="M 172.429688 97.429688 L 176.179688 97.429688 C 178.246094 97.429688 179.929688 95.746094 179.929688 93.679688 C 179.929688 91.617188 178.246094 89.929688 176.179688 89.929688 L 172.429688 89.929688 C 170.367188 89.929688 168.679688 91.617188 168.679688 93.679688 C 168.679688 95.746094 170.367188 97.429688 172.429688 97.429688 "/><path style=" stroke:none;fill-rule:nonzero;fill:#545454;fill-opacity:1;" d="M 191.179688 97.429688 L 202.429688 97.429688 C 204.496094 97.429688 206.179688 95.746094 206.179688 93.679688 C 206.179688 91.617188 204.496094 89.929688 202.429688 89.929688 L 191.179688 89.929688 C 189.117188 89.929688 187.429688 91.617188 187.429688 93.679688 C 187.429688 95.746094 189.117188 97.429688 191.179688 97.429688 "/><path style=" stroke:none;fill-rule:nonzero;fill:#545454;fill-opacity:1;" d="M 194.929688 277.429688 L 179.929688 277.429688 C 177.867188 277.429688 176.179688 279.117188 176.179688 281.179688 C 176.179688 283.246094 177.867188 284.929688 179.929688 284.929688 L 194.929688 284.929688 C 196.996094 284.929688 198.679688 283.246094 198.679688 281.179688 C 198.679688 279.117188 196.996094 277.429688 194.929688 277.429688 "/><path style=" stroke:none;fill-rule:nonzero;fill:#545454;fill-opacity:1;" d="M 209.929688 134.929688 L 206.179688 134.929688 C 204.117188 134.929688 202.429688 136.617188 202.429688 138.679688 C 202.429688 140.746094 204.117188 142.429688 206.179688 142.429688 L 209.929688 142.429688 C 211.996094 142.429688 213.679688 140.746094 213.679688 138.679688 C 213.679688 136.617188 211.996094 134.929688 209.929688 134.929688 "/><path style=" stroke:none;fill-rule:nonzero;fill:#545454;fill-opacity:1;" d="M 228.679688 134.929688 L 224.929688 134.929688 C 222.867188 134.929688 221.179688 136.617188 221.179688 138.679688 C 221.179688 140.746094 222.867188 142.429688 224.929688 142.429688 L 228.679688 142.429688 C 230.746094 142.429688 232.429688 140.746094 232.429688 138.679688 C 232.429688 136.617188 230.746094 134.929688 228.679688 134.929688 "/><path style=" stroke:none;fill-rule:nonzero;fill:#545454;fill-opacity:1;" d="M 262.429688 142.429688 L 281.179688 142.429688 C 283.246094 142.429688 284.929688 140.746094 284.929688 138.679688 C 284.929688 136.617188 283.246094 134.929688 281.179688 134.929688 L 262.429688 134.929688 C 260.367188 134.929688 258.679688 136.617188 258.679688 138.679688 C 258.679688 140.746094 260.367188 142.429688 262.429688 142.429688 "/><path style=" stroke:none;fill-rule:nonzero;fill:#545454;fill-opacity:1;" d="M 247.429688 202.429688 L 213.679688 202.429688 C 211.617188 202.429688 209.929688 204.117188 209.929688 206.179688 C 209.929688 208.246094 211.617188 209.929688 213.679688 209.929688 L 247.429688 209.929688 C 249.496094 209.929688 251.179688 208.246094 251.179688 206.179688 C 251.179688 204.117188 249.496094 202.429688 247.429688 202.429688 "/><path style=" stroke:none;fill-rule:nonzero;fill:#545454;fill-opacity:1;" d="M 239.929688 217.429688 L 213.679688 217.429688 C 211.617188 217.429688 209.929688 219.117188 209.929688 221.179688 C 209.929688 223.246094 211.617188 224.929688 213.679688 224.929688 L 239.929688 224.929688 C 241.996094 224.929688 243.679688 223.246094 243.679688 221.179688 C 243.679688 219.117188 241.996094 217.429688 239.929688 217.429688 "/><path style=" stroke:none;fill-rule:nonzero;fill:#545454;fill-opacity:1;" d="M 273.679688 202.429688 L 262.429688 202.429688 C 260.367188 202.429688 258.679688 204.117188 258.679688 206.179688 C 258.679688 208.246094 260.367188 209.929688 262.429688 209.929688 L 273.679688 209.929688 C 275.746094 209.929688 277.429688 208.246094 277.429688 206.179688 C 277.429688 204.117188 275.746094 202.429688 273.679688 202.429688 "/><path style=" stroke:none;fill-rule:nonzero;fill:#545454;fill-opacity:1;" d="M 266.179688 217.429688 L 254.929688 217.429688 C 252.867188 217.429688 251.179688 219.117188 251.179688 221.179688 C 251.179688 223.246094 252.867188 224.929688 254.929688 224.929688 L 266.179688 224.929688 C 268.246094 224.929688 269.929688 223.246094 269.929688 221.179688 C 269.929688 219.117188 268.246094 217.429688 266.179688 217.429688 "/></g></svg>